<?xml version="1.0" encoding="UTF-8" standalone="no"?>
<svg xmlns="http://www.w3.org/2000/svg" xmlns:xlink="http://www.w3.org/1999/xlink" width="196.201mm" height="158.281mm" viewBox="117.899696 -258.693909 196.200592 158.280624">
    <path transform="matrix(-1,0,0,-1,175.096436,-260.675842)" style="stroke:#8cd78c;stroke-width:0.050000mm;fill:none" d="M22.433105,-3.950195C22.957312,-3.663047,23.440491,-3.306656,23.869629,-2.890625C24.077597,-2.696419,24.230053,-2.450023,24.311035,-2.177246C24.328033,-2.111942,24.321289,-2.042722,24.291992,-1.981934C24.083139,-2.165335,23.857357,-2.328499,23.617676,-2.469238C23.368849,-2.614809,23.107763,-2.738325,22.837402,-2.838379L21.922363,-4.234863L22.433105,-3.950195zM-39.334473,-11.811523C-39.040085,-11.784971,-38.748501,-11.733353,-38.462891,-11.657227C-37.299286,-11.323242,-36.248501,-10.680357,-35.421387,-9.796387C-35.305283,-9.675797,-35.23011,-9.521688,-35.206543,-9.355957C-35.214001,-9.290558,-35.255089,-9.233936,-35.314941,-9.206543L-35.641113,-9.575684C-36.324356,-10.249849,-37.178825,-10.724272,-38.112305,-10.947754C-38.679474,-11.097261,-39.281647,-11.038342,-39.809082,-10.781738C-40.254719,-10.507708,-40.563587,-10.057799,-40.65918,-9.543457C-40.784889,-8.861222,-40.748932,-8.158993,-40.554199,-7.493164C-40.265533,-6.208799,-39.615608,-5.033649,-38.681152,-4.106445C-38.081081,-3.498491,-37.31942,-3.075043,-36.486328,-2.88623C-35.979954,-2.775789,-35.455658,-2.776789,-34.949707,-2.88916C-34.645908,-2.956976,-34.365814,-3.105035,-34.138672,-3.317871C-33.896564,-3.54188,-33.865204,-3.913925,-34.066406,-4.175293L-34.132324,-4.275391C-34.004009,-4.316951,-33.863327,-4.292248,-33.756836,-4.209473C-33.579731,-4.052083,-33.429409,-3.867146,-33.311523,-3.661621L-32.612305,-2.669922C-34.47998,-1.926405,-36.589211,-2.107574,-38.302734,-3.158691C-39.745251,-4.019277,-40.881058,-5.311193,-41.549805,-6.852051C-41.883167,-7.607342,-42.078178,-8.416495,-42.125488,-9.240723C-42.176067,-9.88141,-41.999374,-10.519543,-41.626465,-11.042969C-41.256844,-11.504357,-40.707146,-11.785431,-40.116699,-11.814941C-39.856373,-11.83699,-39.594597,-11.835848,-39.334473,-11.811523zM4.876953,-15.354492C5.823423,-15.240421,6.712885,-14.842079,7.428223,-14.211914C8.17844,-13.581285,8.749434,-12.764451,9.083984,-11.843262C9.211454,-11.53623,9.331793,-11.226187,9.444824,-10.913574L10.41748,-8.20166C10.602666,-7.737708,10.814786,-7.284934,11.052734,-6.845703C10.160631,-6.839424,9.267505,-6.842522,8.375488,-6.85498C8.007729,-6.83483,7.641129,-6.912328,7.312988,-7.07959C7.016925,-7.307995,6.759038,-7.581865,6.548828,-7.891113C7.176523,-7.723162,7.825027,-7.645881,8.474609,-7.661621L9.621094,-7.661621L8.737305,-10.097168C8.176109,-10.512763,7.533789,-10.805725,6.852051,-10.957031C6.296142,-11.080293,5.715442,-11.021761,5.195313,-10.790039C4.747639,-10.549952,4.430089,-10.122852,4.329102,-9.625C4.221595,-9.091528,4.226749,-8.541619,4.344238,-8.010254C4.55429,-6.86584,5.015225,-5.782043,5.693848,-4.836914C6.218087,-4.102908,6.922733,-3.516488,7.739746,-3.134277C8.470366,-2.809593,9.28466,-2.723824,10.066895,-2.88916C10.370635,-2.956735,10.650639,-3.104833,10.877441,-3.317871C11.119802,-3.541677,11.151381,-3.91385,10.950195,-4.175293L10.883789,-4.275391C11.012103,-4.316944,11.152789,-4.292247,11.259277,-4.209473C11.436763,-4.052447,11.587138,-3.867445,11.70459,-3.661621L12.403809,-2.669922C10.532744,-1.925118,8.419607,-2.107775,6.704102,-3.162598C5.259544,-4.030979,4.124381,-5.33131,3.458984,-6.879883C3.185021,-7.519797,3.001456,-8.194731,2.913574,-8.885254C2.832203,-9.442833,2.897168,-10.012193,3.102051,-10.537109C3.395539,-11.277977,4.094811,-11.780048,4.890625,-11.821289C5.679535,-11.871217,6.469163,-11.735068,7.195801,-11.423828C7.644532,-11.242687,8.078455,-11.026869,8.493652,-10.77832C8.247685,-11.543192,7.959153,-12.293699,7.629395,-13.026367C7.427725,-13.517344,7.127221,-13.961617,6.746582,-14.331543C6.112265,-14.829691,5.258309,-14.944236,4.515137,-14.630859C4.115245,-14.421937,3.829195,-14.046082,3.734375,-13.60498L2.530762,-14.400879C2.806418,-14.887387,3.288294,-15.222474,3.840332,-15.311523C4.182111,-15.374819,4.531109,-15.389286,4.876953,-15.354492zM-16.645996,-11.712891C-16.150043,-11.627014,-15.678499,-11.434965,-15.263672,-11.149902C-14.177693,-10.422107,-13.277082,-9.450776,-12.633301,-8.312988C-12.273836,-7.677734,-12.072186,-6.965256,-12.04541,-6.23584C-12.024888,-5.924453,-12.132299,-5.618093,-12.342773,-5.387695C-12.643103,-5.150923,-13.02918,-5.052366,-13.40625,-5.116211C-13.637626,-5.146922,-13.865103,-5.201909,-14.084961,-5.280273L-19.069824,-5.280273L-18.512695,-3.722168L-19.586914,-4.052734L-20.034668,-5.280273L-20.756348,-5.280273L-21.740723,-6.062988L-20.317383,-6.062988L-21.479004,-9.289063C-21.673004,-9.777176,-21.823185,-10.281649,-21.927734,-10.796387C-21.975121,-11.008832,-21.951784,-11.23122,-21.861328,-11.429199C-21.772541,-11.585339,-21.616739,-11.691621,-21.438965,-11.717285C-21.046022,-11.755692,-20.652205,-11.658009,-20.322754,-11.44043C-19.869085,-11.214337,-19.468018,-10.895447,-19.145508,-10.504395C-19.041264,-10.38606,-19.02249,-10.214764,-19.098633,-10.07666C-19.360245,-10.392338,-19.675714,-10.659363,-20.030273,-10.865234C-20.227602,-11.000587,-20.479176,-11.031072,-20.703125,-10.946777C-20.827257,-10.862355,-20.891432,-10.713657,-20.867676,-10.56543C-20.813435,-10.172769,-20.711971,-9.788231,-20.56543,-9.419922C-20.172073,-8.297184,-19.767868,-7.178005,-19.353027,-6.062988L-15.40625,-6.062988C-16.20575,-6.670185,-16.884804,-7.421616,-17.408203,-8.27832C-17.802185,-8.926458,-18.046268,-9.654536,-18.122559,-10.40918C-18.170046,-10.736783,-18.099979,-11.070684,-17.924805,-11.351563C-17.686594,-11.626059,-17.331198,-11.769167,-16.969238,-11.736328L-16.645996,-11.712891zM23.676758,-11.728027C24.166119,-11.61694,24.623707,-11.395664,25.014648,-11.081055C25.288523,-10.912059,25.517529,-10.679367,25.682129,-10.402832C25.738539,-10.300491,25.735029,-10.175603,25.672852,-10.07666C25.44783,-10.336218,25.192043,-10.56741,24.911133,-10.765137C24.702105,-10.935227,24.432709,-11.013681,24.165039,-10.982422C24.025871,-10.954935,23.922129,-10.837756,23.911621,-10.696289C23.909069,-10.369047,23.972483,-10.04484,24.098145,-9.742676C24.517128,-8.508793,24.957619,-7.28162,25.418945,-6.062988L27.577637,-6.062988L28.562012,-5.280273L25.70166,-5.280273L26.258789,-3.722168L25.18457,-4.052734L24.736816,-5.280273L24.015137,-5.280273L23.030762,-6.062988L24.454102,-6.062988L23.29248,-9.289063C23.09848,-9.777174,22.948301,-10.281643,22.84375,-10.796387C22.796354,-11.00883,22.819693,-11.231222,22.910156,-11.429199C22.998964,-11.585321,23.154751,-11.691607,23.33252,-11.717285C23.446043,-11.73844,23.562138,-11.742064,23.676758,-11.728027zM16.010742,-11.721191C16.39332,-11.626521,16.748657,-11.444759,17.049316,-11.189941C17.512501,-10.832949,17.930149,-10.420547,18.292969,-9.961914C18.338314,-9.923664,18.367245,-9.868699,18.369493,-9.809529C18.371742,-9.75036,18.347067,-9.693357,18.304688,-9.651855L18.238281,-9.597656L18.016113,-9.89502C17.768583,-10.259201,17.442852,-10.563906,17.062988,-10.786621C16.967573,-10.835967,16.862261,-10.863175,16.754883,-10.866211L16.688965,-10.848145C16.626797,-10.737788,16.626799,-10.603033,16.688965,-10.492676C16.820789,-10.085782,16.967365,-9.683833,17.128418,-9.287598L18.236328,-6.467773C18.430069,-5.994885,18.64064,-5.529119,18.867676,-5.071289L17.682617,-5.442383L17.054199,-7.041016C16.648369,-7.981711,16.050461,-8.827262,15.298828,-9.523438C14.894161,-9.954006,14.423942,-10.318085,13.905762,-10.602051C13.686985,-10.728361,13.435699,-10.787146,13.183594,-10.770996C13.09402,-10.757602,13.024088,-10.686467,13.012207,-10.59668C13.000635,-10.501575,13.008101,-10.405178,13.03418,-10.312988C13.118817,-9.975374,13.220014,-9.642124,13.337402,-9.314453L14.03418,-7.385254L14.236328,-6.818359L14.42627,-6.299316C14.559344,-6.021155,14.618267,-5.712904,14.597168,-5.405273C14.578947,-5.258195,14.465657,-5.140727,14.319336,-5.117188C14.078909,-5.094888,13.838041,-5.151594,13.632813,-5.278809C13.019932,-5.608923,12.468912,-6.042505,12.003906,-6.560547C11.897951,-6.673857,11.828531,-6.816438,11.804688,-6.969727C11.810902,-7.030954,11.839593,-7.087645,11.885254,-7.128906C12.017337,-6.954883,12.156619,-6.786441,12.302734,-6.624023C12.497855,-6.390707,12.73421,-6.195234,13,-6.047363C13.098213,-5.985927,13.215801,-5.962442,13.330078,-5.981445C13.393528,-6.001309,13.435664,-6.061513,13.432617,-6.12793C13.423646,-6.331028,13.377649,-6.530724,13.296875,-6.717285L13.146973,-7.155762L13.057617,-7.425781C12.74662,-8.324039,12.425667,-9.219486,12.095215,-10.11084L11.993164,-10.40918C11.890516,-10.67382,11.827818,-10.952256,11.807129,-11.235352C11.771843,-11.464951,11.926635,-11.681604,12.155273,-11.722656C12.467941,-11.747835,12.78089,-11.681178,13.056152,-11.530762C13.629843,-11.241952,14.169035,-10.889314,14.663574,-10.479492C15.256831,-10.001788,15.810401,-9.476796,16.318848,-8.909668L15.695801,-10.515137C15.546619,-10.813795,15.47172,-11.144234,15.477539,-11.478027C15.495644,-11.606001,15.595803,-11.706976,15.723633,-11.726074C15.81887,-11.741467,15.916083,-11.739812,16.010742,-11.721191zM-29.585449,-11.721191L-29.399902,-11.675781C-28.891607,-11.471279,-28.432676,-11.160828,-28.053711,-10.765137C-27.745735,-10.510951,-27.476675,-10.212763,-27.255371,-9.880371C-27.205309,-9.806684,-27.221203,-9.706572,-27.291504,-9.651855L-27.35791,-9.597656L-27.580078,-9.89502C-27.827608,-10.259201,-28.153339,-10.563905,-28.533203,-10.786621C-28.628622,-10.835962,-28.733931,-10.863169,-28.841309,-10.866211L-28.907227,-10.848145C-28.969387,-10.737786,-28.969385,-10.603036,-28.907227,-10.492676C-28.77541,-10.085808,-28.628815,-9.683811,-28.467773,-9.287598L-27.359863,-6.467773C-27.16613,-5.994908,-26.955544,-5.529105,-26.728516,-5.071289L-27.914063,-5.442383L-28.541992,-7.041016C-28.947865,-7.981687,-29.545765,-8.827232,-30.297363,-9.523438C-30.70203,-9.954008,-31.172249,-10.318086,-31.69043,-10.602051C-31.909212,-10.728346,-32.160492,-10.787134,-32.412598,-10.770996C-32.502163,-10.75743,-32.572132,-10.686423,-32.584473,-10.59668C-32.595558,-10.501537,-32.587933,-10.4052,-32.562012,-10.312988C-32.477375,-9.97537,-32.376183,-9.642126,-32.258789,-9.314453L-31.562012,-7.385254L-31.359863,-6.818359L-31.169922,-6.299316C-31.036848,-6.021154,-30.977924,-5.712904,-30.999023,-5.405273C-31.017229,-5.258188,-31.130526,-5.140703,-31.276855,-5.117188C-31.517282,-5.09489,-31.758148,-5.151597,-31.963379,-5.278809C-32.57626,-5.608923,-33.127281,-6.042505,-33.592285,-6.560547C-33.698242,-6.673855,-33.767662,-6.816438,-33.791504,-6.969727C-33.785324,-7.030963,-33.756626,-7.087666,-33.710938,-7.128906C-33.578857,-6.954885,-33.439568,-6.786438,-33.293457,-6.624023C-33.098335,-6.390707,-32.86198,-6.195234,-32.596191,-6.047363C-32.497974,-5.985935,-32.38039,-5.962453,-32.266113,-5.981445C-32.202667,-6.001311,-32.160534,-6.061514,-32.163574,-6.12793C-32.172546,-6.331028,-32.218536,-6.530725,-32.299316,-6.717285L-32.449219,-7.155762L-32.538574,-7.425781C-32.849594,-8.32412,-33.170502,-9.219421,-33.500977,-10.11084L-33.603027,-10.40918C-33.705673,-10.67382,-33.768372,-10.952258,-33.789063,-11.235352C-33.824329,-11.46495,-33.669552,-11.6816,-33.440918,-11.722656C-33.12825,-11.747843,-32.8153,-11.68118,-32.540039,-11.530762C-31.966354,-11.241954,-31.427158,-10.889314,-30.932617,-10.479492C-30.339359,-10.001787,-29.785789,-9.476795,-29.277344,-8.909668L-29.900391,-10.515137C-30.049568,-10.813798,-30.124474,-11.144234,-30.118652,-11.478027C-30.100531,-11.605992,-30.000378,-11.706946,-29.872559,-11.726074C-29.777323,-11.74148,-29.680107,-11.739817,-29.585449,-11.721191zM19.713867,-11.721191C20.096329,-11.626608,20.451532,-11.44483,20.751953,-11.189941C21.216686,-10.832738,21.634941,-10.418911,21.99707,-9.958008C22.042624,-9.920532,22.071873,-9.866004,22.073936,-9.807186C22.076,-9.748368,22.050642,-9.691925,22.007813,-9.651367L21.941406,-9.597656L21.717773,-9.89502C21.469027,-10.258681,21.142954,-10.56324,20.763184,-10.786621C20.668741,-10.835773,20.564426,-10.862982,20.458008,-10.866211C20.409025,-10.8714,20.363346,-10.840759,20.349609,-10.793457C20.341873,-10.606877,20.381166,-10.421335,20.463867,-10.253906C20.986816,-8.902222,21.523926,-7.519287,22.050781,-6.168457L22.106934,-6.012207C22.213091,-5.783288,22.237551,-5.525054,22.17627,-5.280273C22.111076,-5.158296,21.977674,-5.088685,21.840332,-5.10498C21.49577,-5.150628,21.169052,-5.285456,20.892578,-5.496094C20.369112,-5.806252,19.905836,-6.208167,19.524902,-6.682617C19.441334,-6.773943,19.404377,-6.898902,19.424805,-7.020996C19.439346,-7.063483,19.462442,-7.102538,19.492676,-7.135742C19.680861,-6.88445,19.888189,-6.648062,20.112793,-6.428711C20.295218,-6.231087,20.52368,-6.08163,20.777832,-5.993652C20.846834,-5.965208,20.924477,-5.966265,20.992676,-5.996582C21.054405,-6.090819,21.064632,-6.209055,21.02002,-6.3125C20.889118,-6.732368,20.734585,-7.144458,20.557129,-7.546875L19.70459,-9.719727C19.516006,-10.164801,19.351059,-10.619555,19.210449,-11.082031C19.154268,-11.240796,19.154446,-11.4141,19.210938,-11.572754C19.277994,-11.687957,19.407209,-11.752277,19.539551,-11.736328L19.713867,-11.721191zM-4.444824,-11.725098C-4.067891,-11.618788,-3.71673,-11.43631,-3.413086,-11.188965C-2.966782,-10.901335,-2.575009,-10.536517,-2.256348,-10.111816C-2.187617,-10.034055,-2.149644,-9.933372,-2.149902,-9.82959C-2.173186,-9.760235,-2.218184,-9.700355,-2.27832,-9.658691L-2.450684,-9.89502C-2.750814,-10.310321,-3.142771,-10.650485,-3.596191,-10.88916C-3.661549,-10.922423,-3.738715,-10.923141,-3.804688,-10.891113C-3.868323,-10.790246,-3.878148,-10.665235,-3.831055,-10.555664C-3.717571,-10.147388,-3.579294,-9.74642,-3.416992,-9.35498L-2.435547,-6.852051C-2.254396,-6.452424,-2.137253,-6.026855,-2.088379,-5.59082C-2.058509,-5.364372,-2.214875,-5.154655,-2.44043,-5.118652C-2.763028,-5.0906,-3.08632,-5.160873,-3.368164,-5.320313C-3.91809,-5.616472,-4.424187,-5.987501,-4.87207,-6.422852C-5.423299,-6.943004,-5.9245,-7.51368,-6.369141,-8.127441L-6.064453,-7.28418C-5.900002,-6.865441,-5.753391,-6.439943,-5.625,-6.008789C-5.549964,-5.789756,-5.545693,-5.552648,-5.612793,-5.331055C-5.688847,-5.175535,-5.854908,-5.084868,-6.026855,-5.10498C-6.493689,-5.137617,-6.94216,-5.298991,-7.322754,-5.571289C-8.012425,-6.047821,-8.638421,-6.610478,-9.185547,-7.245605L-9.710449,-7.837402C-9.5979,-7.525944,-9.48288,-7.21027,-9.368652,-6.899414L-9.125977,-6.202637C-9.018188,-5.947639,-8.970751,-5.671368,-8.987305,-5.39502C-9.013667,-5.248265,-9.13236,-5.135509,-9.280273,-5.116699C-9.520433,-5.094316,-9.761018,-5.15159,-9.965332,-5.279785C-10.572654,-5.612894,-11.119183,-6.046189,-11.582031,-6.561523C-11.685752,-6.669543,-11.753026,-6.807348,-11.774414,-6.955566C-11.758026,-7.022207,-11.722391,-7.082455,-11.671875,-7.128906C-11.541426,-6.955754,-11.403605,-6.788284,-11.258789,-6.626953C-11.065966,-6.395326,-10.832268,-6.201019,-10.569336,-6.053711C-10.473125,-5.991866,-10.356726,-5.96862,-10.244141,-5.98877C-10.18008,-6.015696,-10.141602,-6.081887,-10.149902,-6.150879C-10.187358,-6.473938,-10.271723,-6.78969,-10.400391,-7.088379C-10.87439,-8.417068,-11.344238,-9.722122,-11.826172,-11.04834L-12.072266,-11.736328L-10.964355,-11.324707L-10.385254,-9.706055C-10.025146,-8.808994,-9.496766,-7.989077,-8.828613,-7.290527C-8.477602,-6.867738,-8.064676,-6.500254,-7.604004,-6.200684C-7.421436,-6.070438,-7.197797,-6.010754,-6.974609,-6.032715C-6.863638,-6.062504,-6.786595,-6.163421,-6.787109,-6.27832C-6.795623,-6.596567,-6.864017,-6.910223,-6.98877,-7.203125L-7.121582,-7.546875C-7.640137,-8.983826,-8.111572,-10.297668,-8.625,-11.736328L-7.523926,-11.324707L-6.937988,-9.706055C-6.575775,-8.806871,-6.042466,-7.986511,-5.367676,-7.290527C-5.011549,-6.866526,-4.592959,-6.498983,-4.126465,-6.200684C-3.940971,-6.071859,-3.716222,-6.011915,-3.491211,-6.03125C-3.388918,-6.0537,-3.314252,-6.141983,-3.309082,-6.246582C-3.305956,-6.472669,-3.35019,-6.696833,-3.438965,-6.904785C-3.804562,-7.924965,-4.193478,-8.936577,-4.605469,-9.938965L-4.684082,-10.151855C-4.84082,-10.519351,-4.945045,-10.907154,-4.993652,-11.303711C-5.00734,-11.398803,-4.985208,-11.496019,-4.929629,-11.574341C-4.87405,-11.652663,-4.789592,-11.705652,-4.695313,-11.724121C-4.612608,-11.740072,-4.52765,-11.740404,-4.444824,-11.725098zM35.015625,-11.345215L35.60791,-9.699219C36.105366,-8.409995,36.965099,-7.292899,38.083984,-6.481934C38.393154,-6.242245,38.792137,-6.149597,39.175293,-6.228516C39.254528,-6.245135,39.330116,-6.275904,39.398438,-6.319336L40.608887,-5.280273C40.141571,-5.046612,39.591057,-5.047519,39.124512,-5.282715C38.533302,-5.57411,37.998817,-5.968402,37.545898,-6.447266C37.079834,-6.918751,36.643929,-7.419071,36.240723,-7.945313L36.641602,-6.825195C36.76532,-6.509522,36.872559,-6.18763,36.962891,-5.86084C37.027714,-5.677336,37.027027,-5.476998,36.960938,-5.293945C36.850456,-5.134212,36.651196,-5.062698,36.464355,-5.115723C36.019272,-5.25419,35.606991,-5.481172,35.251953,-5.783203C34.903847,-6.022381,34.595543,-6.314868,34.338379,-6.649902C34.246967,-6.743986,34.207188,-6.877036,34.231934,-7.005859C34.25214,-7.055889,34.283924,-7.100416,34.324707,-7.135742C34.447449,-6.961286,34.578453,-6.792807,34.717285,-6.630859C34.903381,-6.395297,35.134624,-6.199244,35.397461,-6.054199C35.499046,-5.992598,35.619556,-5.969194,35.736816,-5.988281C35.802547,-6.01017,35.845524,-6.0734,35.841797,-6.142578C35.826725,-6.38706,35.768871,-6.627063,35.670898,-6.851563L35.475098,-7.39209L34.323242,-10.603027L34.160156,-11.041504C34.082512,-11.254404,34.00676,-11.468296,33.933105,-11.682617L35.015625,-11.345215zM39.762695,-11.726074C40.842384,-11.627446,41.826603,-11.069553,42.46582,-10.193848C42.66428,-9.925613,42.766087,-9.597624,42.754395,-9.26416C42.675453,-8.80832,42.481876,-8.379993,42.191895,-8.019531L41.884766,-7.574219C41.638458,-7.269804,41.46553,-6.912752,41.379395,-6.530762C41.331348,-6.152446,41.575886,-5.798684,41.946777,-5.709961C42.434376,-5.59604,42.94669,-5.724982,43.322266,-6.056152L44.318359,-5.307617C43.189724,-4.887705,41.921406,-5.123053,41.018555,-5.919922C40.664841,-6.220067,40.430264,-6.637072,40.357422,-7.095215C40.366116,-7.481801,40.493652,-7.856391,40.722656,-8.167969C40.858395,-8.37759,41.001545,-8.582304,41.151855,-8.781738L41.304199,-9.007813C41.504654,-9.286804,41.638813,-9.608082,41.696289,-9.946777C41.733658,-10.468321,41.411854,-10.94781,40.915039,-11.11084C40.433212,-11.255993,39.911114,-11.160616,39.511719,-10.854492C39.428417,-10.782869,39.35487,-10.700624,39.292969,-10.609863L38.171875,-11.37207C38.649475,-11.660288,39.207943,-11.784569,39.762695,-11.726074zM-26.203125,-11.726074C-25.848181,-11.698554,-25.499641,-11.616193,-25.169922,-11.481934C-24.499771,-11.22416,-23.9195,-10.77657,-23.5,-10.193848C-23.301538,-9.925615,-23.199726,-9.597625,-23.211426,-9.26416C-23.290304,-8.808297,-23.483887,-8.379963,-23.773926,-8.019531L-24.081055,-7.574219C-24.32736,-7.269804,-24.500292,-6.912752,-24.586426,-6.530762C-24.634453,-6.152454,-24.389919,-5.798698,-24.019043,-5.709961C-23.531445,-5.596037,-23.019133,-5.724983,-22.643555,-6.056152L-21.647461,-5.307617C-22.77593,-4.887634,-24.044149,-5.122996,-24.946777,-5.919922C-25.30085,-6.219845,-25.535646,-6.636926,-25.608398,-7.095215C-25.599184,-7.481716,-25.471706,-7.856143,-25.243164,-8.167969C-25.106941,-8.37725,-24.963783,-8.581971,-24.813965,-8.781738L-24.661621,-9.007813C-24.461168,-9.286805,-24.327009,-9.608082,-24.269531,-9.946777C-24.2321,-10.468342,-24.553925,-10.947856,-25.050781,-11.11084C-25.53261,-11.255989,-26.054705,-11.16061,-26.454102,-10.854492C-26.537397,-10.782862,-26.610943,-10.700619,-26.672852,-10.609863L-27.793945,-11.37207C-27.316334,-11.660257,-26.757874,-11.784533,-26.203125,-11.726074zM30.92334,-11.721191C31.305994,-11.626736,31.661385,-11.444947,31.961914,-11.189941C32.423954,-10.833786,32.839596,-10.421262,33.199219,-9.961914C33.244438,-9.923561,33.273228,-9.868564,33.275379,-9.809419C33.277534,-9.750274,33.252819,-9.693328,33.210449,-9.651855L33.144043,-9.597656L32.921875,-9.89502C32.675369,-10.258693,32.351036,-10.563341,31.972656,-10.786621C31.878275,-10.835929,31.773922,-10.86315,31.66748,-10.866211C31.618626,-10.870914,31.573275,-10.840442,31.559082,-10.793457C31.551237,-10.606812,31.590712,-10.421206,31.673828,-10.253906C31.790855,-9.929714,31.913223,-9.607681,32.041016,-9.287598L33.236816,-6.255859C33.369461,-5.956165,33.510315,-5.660128,33.65918,-5.368164C33.140354,-5.200622,32.591305,-5.148799,32.050293,-5.216309C31.250895,-5.310018,30.485029,-5.591237,29.814941,-6.037109C28.596085,-6.814178,27.633305,-7.933204,27.046875,-9.254395C26.812971,-9.77484,26.665688,-10.329998,26.61084,-10.897949C26.579742,-11.118374,26.632017,-11.342867,26.757324,-11.526855C26.934242,-11.710918,27.196291,-11.786038,27.443848,-11.723633C27.92856,-11.622355,28.385855,-11.418025,28.784668,-11.124512C29.703104,-10.493006,30.530752,-9.738789,31.244629,-8.882813L30.810547,-9.975586C30.658344,-10.333761,30.52837,-10.701008,30.421387,-11.075195C30.36552,-11.235807,30.365347,-11.410568,30.420898,-11.571289C30.48716,-11.687201,30.616455,-11.752189,30.749023,-11.736328L30.92334,-11.721191zM28.097168,-10.737793L28.001953,-10.696777C27.876457,-10.58846,27.818958,-10.420839,27.851563,-10.258301C28.069284,-8.841576,28.727732,-7.530146,29.733887,-6.509277C30.050886,-6.184356,30.459984,-5.964126,30.905762,-5.878418C31.393581,-5.816992,31.887203,-5.932728,32.296875,-6.20459C32.071388,-6.875259,31.771139,-7.518512,31.401855,-8.12207C30.740572,-9.170181,29.821854,-10.030912,28.73291,-10.622559C28.537931,-10.725554,28.315891,-10.765809,28.097168,-10.737793zM-16.140625,-10.972656C-16.565601,-10.938362,-16.894775,-10.58503,-16.898926,-10.158691C-16.92165,-9.4065,-16.772909,-8.659295,-16.463867,-7.973145C-16.187332,-7.277877,-15.734715,-6.66659,-15.150391,-6.199219C-14.766952,-5.881724,-14.247761,-5.781901,-13.773926,-5.93457C-13.480286,-6.070155,-13.288099,-6.359382,-13.276855,-6.682617C-13.247547,-7.224662,-13.322796,-7.767156,-13.498535,-8.280762C-13.747049,-9.210133,-14.282984,-10.037105,-15.029785,-10.643555C-15.345014,-10.889931,-15.742062,-11.007565,-16.140625,-10.972656z"/>
    <rect transform="matrix(1,0,0,-1,313.100281,-121)" style="stroke:#004754;stroke-width:0.050000mm;fill:none" x="-1" y="-1" width="2" height="2"/>
    <rect transform="matrix(1,0,0,-1,118.899696,-121)" style="stroke:#004754;stroke-width:0.050000mm;fill:none" x="-1" y="-1" width="2" height="2"/>
    <path transform="matrix(1,0,0,-1,0,0)" style="stroke:none;fill:#500a78;fill-rule:evenodd" d="M138.885956,100.58564L138.754013,100.673378L138.648834,100.767403L138.568512,100.872276L138.511826,100.992691L138.476868,101.133232L138.462021,101.298546L138.465637,101.493217L138.486328,101.721931L138.520554,101.935608L138.575775,102.161766L138.651978,102.400665L138.749237,102.652519L138.86795,102.917633L139.008179,103.19622L139.169891,103.488525L139.353607,103.794838L139.559128,104.115364L139.786713,104.450371L140.03656,104.80011L140.309052,105.164871L140.603882,105.544823L140.921417,105.940262L141.261871,106.351448L141.62561,106.778656L142.071808,107.291344L142.534332,107.81279L143.498932,108.87233L144.499939,109.937988L145.518738,110.99057L146.536743,112.010948L147.039169,112.502991L147.534531,112.979813L148.019974,113.438927L148.493439,113.878006L148.952621,114.294609L149.394928,114.686348L149.64978,114.909576L149.874054,115.10836L150.070435,115.286842L150.241425,115.44915L150.389618,115.599419L150.517822,115.741776L150.628662,115.880394L150.724869,116.019386L150.883408,116.315056L150.950928,116.47998L151.014313,116.661827L151.076111,116.864754L151.138794,117.092834L151.205521,117.350288L151.278305,117.64119L151.522003,118.671684L151.737274,119.686638L151.923737,120.681252L152.081451,121.650856L152.210175,122.590683L152.30957,123.495995L152.379791,124.362114L152.403748,124.778961L152.420502,125.184258L152.429688,125.57737L152.431458,125.95771L152.42572,126.324699L152.412689,126.677765L152.392105,127.016281L152.364014,127.339684L152.3284,127.647346L152.285309,127.938728L152.234604,128.213196L152.176239,128.470169L152.110413,128.709076L152.036804,128.929291L151.955688,129.130249L151.866837,129.31134L151.770355,129.472015L151.666199,129.611633L151.554657,129.726593L151.435974,129.818695L151.32428,129.87854L151.275589,129.893463L151.234116,129.89682L151.160599,129.880157L151.075546,129.840485L150.979065,129.778015L150.871277,129.692932L150.752274,129.585388L150.62204,129.455566L150.481049,129.303711L150.32933,129.129974L150.167206,128.93457L149.994522,128.717651L149.811798,128.479477L149.618866,128.220169L149.416107,127.939949L149.203613,127.639015L148.981628,127.317543L148.750122,126.975716L148.307983,126.308258L147.883224,125.647903L147.07045,124.319778L146.675201,123.637741L146.282532,122.934212L145.888672,122.202034L145.490295,121.434113L145.083405,120.623253L144.875885,120.199532L144.664627,119.76236L144.449646,119.310921L144.230225,118.844299L144.006165,118.361595L143.776733,117.861923L143.541443,117.344353L143.300018,116.808052L143.05191,116.252083L142.796967,115.675613L142.534302,115.077682L142.263733,114.457443L141.984497,113.81395L141.696442,113.146362L141.413467,112.488625L141.145905,111.868011L140.893799,111.28347L140.656372,110.733841L140.433136,110.217995L140.223465,109.734779L140.026978,109.283119L139.842926,108.861832L139.671051,108.469826L139.510605,108.105949L139.361084,107.769081L139.222107,107.458107L139.092941,107.171867L138.973206,106.909264L138.862244,106.669151L138.759583,106.450386L138.664597,106.251846L138.577026,106.072441L138.496124,105.911011L138.421127,105.76638L138.351929,105.637497L138.28775,105.523193L138.228119,105.422348L138.17276,105.33387L138.071381,105.189293L137.979736,105.08049L137.893585,104.998436L137.808502,104.934074L137.688263,104.870277L137.546356,104.824074L137.390839,104.795555L137.229675,104.784805L137.070923,104.791939L136.922318,104.816978L136.792145,104.860077L136.68866,104.921364L136.675568,104.944351L136.670746,104.987968L136.674179,105.054024L136.686661,105.144478L136.708435,105.261169L136.740295,105.406059L136.782486,105.581001L136.835663,105.787933L136.90033,106.028732L136.976868,106.305298L137.065689,106.619514L137.167679,106.973335L137.282974,107.368607L137.412354,107.807274L137.556061,108.291183L137.714615,108.822266L137.963348,109.653221L138.198029,110.438782L138.419174,111.180916L138.627167,111.881584L138.822754,112.542786L139.006317,113.166473L139.178223,113.754585L139.33902,114.309097L139.489319,114.831985L139.629333,115.325195L139.759888,115.790718L139.881195,116.230484L139.993912,116.646484L140.098526,117.040688L140.195282,117.415016L140.284973,117.771484L140.36795,118.112022L140.444595,118.438614L140.581329,119.057777L140.698944,119.644707L140.801514,120.215103L140.8927,120.784676L140.976563,121.369141L141.057007,121.98423L141.096985,122.308144L141.137726,122.645622L141.197388,123.158752L141.250366,123.640678L141.295868,124.080658L141.315552,124.281555L141.332733,124.46788L141.347748,124.638359L141.360153,124.791588L141.369995,124.926254L141.377197,125.041008L141.38147,125.134476L141.382721,125.205338L141.380859,125.25222L141.375748,125.273788L141.349075,125.295311L141.314972,125.303078L141.273178,125.297119L141.223923,125.277534L141.167328,125.244385L141.103424,125.197746L141.03215,125.13768L140.953781,125.06427L140.868317,124.977577L140.775742,124.877678L140.676178,124.76461L140.56987,124.638519L140.456558,124.499397L140.336624,124.347366L140.210052,124.182487L140.076859,124.004814L139.562439,123.281143L139.067108,122.523285L138.594116,121.737968L138.147385,120.932091L137.730164,120.112419L137.34639,119.285812L136.999573,118.459084L136.693512,117.639076L136.629013,117.453972L136.572403,117.289474L136.523132,117.143768L136.481323,117.015137L136.446198,116.901711L136.417633,116.801727L136.378494,116.634903L136.361404,116.500351L136.363708,116.383766L136.382721,116.270782L136.415817,116.147102L136.456177,115.991074L136.477295,115.860603L136.477997,115.752853L136.45697,115.664978L136.413284,115.59417L136.345642,115.53756L136.252869,115.492332L136.133881,115.45565L135.995148,115.434753L135.857758,115.444893L135.713287,115.487755L135.552933,115.56501L135.393707,115.674797L135.273285,115.810394L135.190536,115.97773L135.163147,116.07518L135.144928,116.182823L135.135895,116.301414L135.135681,116.431664L135.144455,116.574356L135.162201,116.73027L135.188568,116.900093L135.223419,117.084572L135.266937,117.284508L135.319,117.500626L135.462662,118.031937L135.630768,118.576996L135.82106,119.131989L136.031708,119.693138L136.26088,120.256683L136.506454,120.81884L136.766586,121.375824L137.039581,121.923889L137.323074,122.459221L137.615326,122.978043L137.914383,123.476601L138.218262,123.951088L138.525146,124.397758L138.833023,124.812828L139.139801,125.192482L139.443939,125.533012L139.623444,125.719612L139.793991,125.88929L139.957214,126.042793L140.113922,126.180771L140.26593,126.303947L140.414139,126.413002L140.705017,126.591621L140.997513,126.722252L141.302002,126.810493L141.629044,126.861946L141.989166,126.882202L142.211914,126.875832L142.413727,126.848656L142.594818,126.800812L142.754913,126.732384L142.8936,126.643402L143.011139,126.534019L143.106995,126.404236L143.181122,126.254189L143.210388,126.144241L143.229828,125.989357L143.240051,125.79348L143.241409,125.560501L143.234116,125.294296L143.218903,124.998817L143.19577,124.67791L143.16539,124.335556L143.127899,123.975578L143.083923,123.601936L142.977417,122.829163L142.848831,122.048439L142.701324,121.291039L142.637329,120.98172L142.578857,120.684784L142.526947,120.407288L142.483063,120.156372L142.448196,119.939102L142.423645,119.762604L142.41568,119.691872L142.410492,119.633942L142.408691,119.589806L142.410202,119.56028L142.417526,119.54184L142.432083,119.540337L142.45372,119.555794L142.482422,119.58828L142.518326,119.637856L142.561417,119.704582L142.611954,119.788528L142.66954,119.889717L142.734421,120.008217L142.806854,120.144135L142.886566,120.29747L142.973541,120.468285L143.068054,120.656662L143.169968,120.86264L143.27951,121.086311L143.396698,121.327721L143.660126,121.869141L143.919861,122.394051L144.176331,122.902557L144.429092,123.394707L144.678421,123.870598L144.924438,124.33033L145.167114,124.773994L145.406555,125.201668L145.642914,125.613441L145.875916,126.009384L146.106171,126.389648L146.333176,126.754234L146.557434,127.10331L146.778656,127.436913L146.997101,127.755142L147.213043,128.058136L147.426056,128.345886L147.636642,128.618561L147.844681,128.876221L148.050018,129.118942L148.253159,129.346848L148.453979,129.560013L148.652435,129.758514L148.848694,129.942429L149.042831,130.111893L149.234863,130.266937L149.424774,130.407684L149.612671,130.53418L149.798935,130.646606L149.983307,130.744995L150.165756,130.829407L150.346558,130.899963L150.752823,131.022583L151.156036,131.103271L151.552124,131.142365L151.936646,131.140076L152.305145,131.09668L152.653152,131.012421L152.976624,130.887634L153.270813,130.722473L153.393372,130.631317L153.510834,130.524216L153.623016,130.401443L153.730286,130.263367L153.831802,130.110168L153.92804,129.942215L154.01857,129.759735L154.103485,129.563049L154.182449,129.352448L154.255569,129.128189L154.32254,128.890564L154.383453,128.639862L154.437866,128.376343L154.486115,128.100372L154.527802,127.812149L154.562683,127.511971L154.587204,127.18293L154.596924,126.813568L154.59256,126.406982L154.574463,125.966209L154.542999,125.494286L154.498505,124.994278L154.441315,124.469185L154.372284,123.922165L154.291412,123.356186L154.199127,122.774307L154.096069,122.179611L153.982559,121.57515L153.725601,120.349045L153.431549,119.120415L153.360809,118.841721L153.294434,118.578423L153.233826,118.336479L153.180481,118.121895L153.136139,117.940712L153.101959,117.798889L153.079529,117.702446L153.073242,117.673119L153.070374,117.657379L153.086609,117.6119L153.141891,117.578133L153.229095,117.556343L153.340057,117.546661L153.46788,117.549385L153.604523,117.564659L153.742981,117.592796L153.875473,117.633965L154.02359,117.674294L154.195526,117.697044L154.369812,117.700569L154.525299,117.68325L154.861694,117.614685L153.99823,117.092628L153.630859,116.853912L153.283661,116.598541L153.128281,116.473007L152.990997,116.353416L152.87616,116.243149L152.787796,116.145531L152.559937,115.838142L152.450577,115.651474L152.391388,115.537758L152.326813,115.405815L152.25531,115.252159L152.175278,115.073372L152.084961,114.865929L151.982773,114.626389L151.866928,114.35125L151.736069,114.037086L151.588196,113.680367L151.421677,113.277641L151.127518,112.593697L150.806885,111.902458L150.461731,111.206932L150.094131,110.510109L149.706085,109.81501L149.2995,109.124603L148.876648,108.441917L148.439209,107.769905L147.98912,107.111557L147.528748,106.469933L147.060074,105.848L146.584763,105.248711L146.104919,104.675102L145.622635,104.130157L145.139862,103.616882L144.658569,103.138245L144.31929,102.824974L143.943665,102.49971L143.142426,101.857651L142.745865,101.563042L142.371201,101.300789L142.19664,101.18528L142.033203,101.082054L141.882599,100.992462L141.746429,100.917892L141.366882,100.745003L140.966873,100.606537L140.559982,100.504074L140.15921,100.439117L139.778381,100.413284L139.599228,100.415466L139.430008,100.428009L139.272583,100.451134L139.128281,100.48497L138.998795,100.529739L138.885956,100.585632L138.885956,100.58564zM141.454895,101.868889L141.851715,102.113808L142.260803,102.3964L142.679489,102.713966L143.105484,103.063835L143.536255,103.443352L143.969116,103.849785L144.402069,104.280533L144.832062,104.732834L145.257034,105.204063L145.674362,105.691551L146.081726,106.192612L146.476227,106.704514L146.855698,107.22464L147.217865,107.750328L147.559814,108.278824L147.879211,108.807503L148.078598,109.157333L148.277863,109.520363L148.667419,110.267685L149.031494,111.012718L149.199051,111.372948L149.354309,111.718857L149.494873,112.04583L149.619171,112.349327L149.725204,112.624763L149.810608,112.867508L149.873749,113.073036L149.912155,113.236694L149.921539,113.301399L149.924072,113.353935L149.919556,113.393723L149.907547,113.420166L149.866806,113.464035L149.827332,113.494209L149.793793,113.508034L149.770477,113.502754L149.727722,113.461403L149.672089,113.405983L149.604126,113.337234L149.525055,113.256042L149.435059,113.163086L149.335297,113.059219L149.108566,112.821785L148.850845,112.550026L148.568039,112.250221L148.265747,111.928604L147.950012,111.591484L147.301941,110.895882L146.981262,110.549934L146.670486,110.213562L146.375671,109.893089L146.102539,109.594742L145.857132,109.324852L145.746643,109.202522L145.645294,109.089668L145.355804,108.763176L145.059784,108.423088L144.457291,107.71373L143.856155,106.984703L143.274445,106.259102L142.996765,105.904831L142.730759,105.560089L142.478821,105.22776L142.243042,104.910721L142.025818,104.61187L141.829529,104.334099L141.656509,104.08033L141.508759,103.853394L141.249176,103.418129L141.02829,102.999519L140.933685,102.80024L140.850067,102.609673L140.778168,102.429352L140.718552,102.260803L140.671524,102.105522L140.637543,101.965027L140.617401,101.840874L140.611465,101.734566L140.620148,101.647614L140.644012,101.581535L140.683395,101.537849L140.739243,101.518112L140.77005,101.523392L140.823761,101.542618L140.896912,101.574249L140.986725,101.61689L141.090363,101.669121L141.204971,101.7295L141.454895,101.868889z"/>
    <path transform="matrix(1,0,0,-1,0,0)" style="stroke:none;fill:#500a78;fill-rule:evenodd" d="M154.111481,109.795021L154.06543,109.861618L154.023087,109.941048L153.950928,110.133102L153.895706,110.360268L153.858902,110.611763L153.841492,110.876686L153.844315,111.14415L153.868988,111.403381L153.916504,111.643486L153.94574,111.747017L153.984558,111.871468L154.031113,112.012123L154.084106,112.164314L154.201752,112.484276L154.323975,112.793587L154.453613,113.14698L154.566956,113.534752L154.658875,113.937645L154.72464,114.336449L154.759567,114.588158L154.795288,114.798027L154.835144,114.976944L154.883484,115.135963L154.943604,115.285973L155.02002,115.438057L155.115921,115.603081L155.235779,115.792107L155.432953,116.07386L155.642136,116.331001L155.861679,116.562035L156.089417,116.76535L156.323547,116.93943L156.562195,117.082748L156.803421,117.193733L157.045731,117.270912L157.198395,117.306923L157.324554,117.331459L157.431366,117.343987L157.526245,117.344025L157.616547,117.331055L157.709442,117.304527L157.812057,117.263954L157.932129,117.208839L158.103958,117.107811L158.252533,116.978973L158.378586,116.820229L158.483185,116.629539L158.56723,116.404831L158.631668,116.144051L158.677368,115.845139L158.705261,115.50602L158.709381,115.376495L158.708252,115.232933L158.692413,114.911446L158.659607,114.556847L158.612473,114.184471L158.553009,113.809593L158.483185,113.447479L158.405518,113.113487L158.322113,112.822868L158.29686,112.739914L158.281799,112.674568L158.278381,112.624443L158.287872,112.587151L158.31134,112.560249L158.349915,112.541328L158.405212,112.528008L158.478088,112.517845L158.582275,112.515739L158.683899,112.53067L158.771194,112.559898L158.832779,112.600754L158.847198,112.624146L158.867767,112.670647L158.894012,112.738976L158.925339,112.827835L158.961792,112.936058L159.002731,113.06234L159.047852,113.205444L159.096771,113.364113L159.14917,113.537109L159.204529,113.723167L159.322861,114.129471L159.4487,114.572975L159.578979,115.043709L159.710693,115.517525L159.840546,115.969925L159.965179,116.390266L160.08139,116.767906L160.135254,116.937386L160.185822,117.092201L160.232513,117.231033L160.274994,117.352501L160.312927,117.455345L160.345551,117.53817L160.372971,117.599709L160.394424,117.638588L160.493301,117.761551L160.5961,117.837196L160.713989,117.871117L160.858368,117.868919L160.987671,117.843132L161.083679,117.791328L161.11972,117.752037L161.147888,117.701851L161.168152,117.63929L161.181122,117.562943L161.186768,117.471329L161.184998,117.362953L161.176361,117.236412L161.160889,117.090218L161.138443,116.922867L161.109741,116.732994L161.074493,116.519051L161.032928,116.279579L160.975342,115.946358L160.928741,115.657669L160.894165,115.413528L160.872406,115.213943L160.865219,115.058998L160.873138,114.948692L160.897614,114.883064L160.939301,114.862129L160.999847,114.885941L161.080139,114.954544L161.181122,115.067924L161.304138,115.226143L161.450119,115.429222L161.620117,115.677193L161.714447,115.818008L161.815491,115.9701L161.922882,116.1334L162.03714,116.307961L162.192764,116.545708L162.335571,116.761833L162.466492,116.957436L162.586258,117.133629L162.695679,117.291496L162.795761,117.43219L162.887299,117.556793L162.971313,117.666451L163.048431,117.762238L163.119736,117.845291L163.248123,117.977623L163.363312,118.07235L163.472488,118.138382L163.63942,118.205856L163.82132,118.250488L164.011139,118.27269L164.202118,118.272926L164.386581,118.251511L164.558044,118.208946L164.708801,118.145561L164.831863,118.061768L164.912598,117.972763L164.987946,117.854652L165.057236,117.711868L165.119949,117.54882L165.175659,117.369949L165.223602,117.179634L165.29425,116.782433L165.327011,116.392479L165.327805,116.211273L165.317474,116.045158L165.29512,115.898476L165.260864,115.775757L165.213501,115.681328L165.152405,115.619583L165.056763,115.575554L164.961456,115.569328L164.865326,115.602341L164.766693,115.675964L164.664276,115.791649L164.556641,115.950775L164.442139,116.154747L164.319305,116.404945L164.020386,117.046844L163.782318,116.811783L163.7276,116.751991L163.662109,116.669525L163.585114,116.56385L163.496826,116.434578L163.396637,116.281197L163.284241,116.103233L163.159653,115.900284L163.022308,115.671837L162.872147,115.417458L162.708832,115.136673L162.531891,114.829002L162.341248,114.494011L162.136719,114.131248L161.917847,113.740211L161.684433,113.320473L161.436127,112.871544L161.210266,112.465584L161.003387,112.101585L160.813538,111.777504L160.638855,111.491249L160.477386,111.240761L160.327301,111.023979L160.186798,110.838844L160.053741,110.683273L159.926453,110.555199L159.802826,110.452553L159.681046,110.373283L159.559387,110.315331L159.435791,110.276604L159.30838,110.255058L159.175095,110.248589L159.034363,110.25518L158.879822,110.275925L158.760162,110.313301L158.672363,110.374413L158.613815,110.466408L158.581116,110.596336L158.573685,110.677773L158.571899,110.771393L158.574982,110.878052L158.582779,110.99865L158.595047,111.134094L158.611115,111.285225L158.689941,111.982109L158.3591,111.921333L158.262085,111.897087L158.169373,111.858475L158.076401,111.801239L157.978302,111.721054L157.870392,111.613625L157.748093,111.474655L157.606567,111.299858L157.441223,111.08493L157.258575,110.849663L157.082214,110.63517L156.911209,110.44091L156.744751,110.266304L156.581421,110.110741L156.420563,109.973679L156.261139,109.854523L156.102051,109.752693L155.942581,109.667641L155.781357,109.598732L155.617767,109.545448L155.450714,109.50721L155.278961,109.48336L155.101883,109.473412L154.918121,109.476738L154.727234,109.492813L154.525391,109.528198L154.362778,109.586693L154.228516,109.673805L154.111481,109.795006L154.111481,109.795021zM156.035248,110.576775L156.339996,110.949516L156.48053,111.139847L156.606903,111.323715L156.714935,111.494385L156.800003,111.645065L156.857635,111.768959L156.883392,111.859291L156.869766,111.929375L156.819916,112.007896L156.741882,112.085266L156.643097,112.151817L156.579712,112.187004L156.497528,112.2332L156.400177,112.288429L156.291473,112.350822L155.807419,112.631798L155.229294,112.971214L155.094482,112.673592L155.023468,112.501595L154.960312,112.318275L154.857483,111.928261L154.787674,111.525154L154.751556,111.130363L154.746719,110.942856L154.750549,110.765457L154.76329,110.600883L154.785202,110.451836L154.816406,110.320992L154.857071,110.211052L154.907013,110.124657L154.966812,110.064545L155.05777,110.025055L155.168976,110.01899L155.296326,110.044403L155.435822,110.099388L155.583344,110.182014L155.735153,110.290413L155.887115,110.422646L156.035248,110.576775zM157.44603,112.910713L157.484085,113.002838L157.522034,113.109917L157.596313,113.361595L157.666107,113.651016L157.728683,113.963432L157.781464,114.284126L157.821808,114.598396L157.847015,114.891495L157.854065,115.148643L157.844818,115.451729L157.824768,115.720985L157.794006,115.956276L157.752869,116.157448L157.70163,116.324379L157.64032,116.456886L157.569473,116.554871L157.489258,116.618187L157.399826,116.646667L157.301605,116.640205L157.194763,116.598656L157.079681,116.521881L156.956299,116.409706L156.825409,116.262062L156.686752,116.078743L156.540771,115.859619L156.452209,115.716225L156.373154,115.581642L156.242554,115.335052L156.147614,115.112198L156.086395,114.905411L156.057251,114.707001L156.05838,114.509285L156.088257,114.304619L156.144974,114.085312L156.21051,113.889267L156.282379,113.714317L156.362213,113.557503L156.452591,113.415985L156.555435,113.28685L156.672516,113.167152L156.806274,113.054054L156.958618,112.944611L157.076965,112.867134L157.170273,112.811142L157.243378,112.776421L157.299805,112.762589L157.344147,112.769409L157.380371,112.796547L157.412872,112.843735L157.44603,112.910713z"/>
    <path transform="matrix(1,0,0,-1,0,0)" style="stroke:none;fill:#500a78;fill-rule:evenodd" d="M166.11969,111.519981L166.008316,111.676537L165.919571,111.846275L165.851563,112.040062L165.802399,112.268707L165.784454,112.399513L165.770721,112.543137L165.76062,112.700867L165.754456,112.874153L165.751663,113.064308L165.752014,113.272652L165.755554,113.500626L165.761719,113.749504L165.772858,114.004448L165.791428,114.27578L165.848892,114.855057L165.929459,115.462273L166.028992,116.072433L166.1427,116.660454L166.203644,116.938354L166.266449,117.201332L166.330627,117.446259L166.395584,117.670013L166.460846,117.869461L166.525711,118.041443L166.618378,118.242119L166.716705,118.411324L166.817261,118.546227L166.916855,118.644081L167.011734,118.702011L167.098328,118.717216L167.173187,118.686867L167.205078,118.653725L167.232681,118.608131L167.238617,118.583885L167.242126,118.540993L167.243347,118.480476L167.24263,118.40345L167.239441,118.310867L167.234283,118.203819L167.218063,117.950546L167.194641,117.651955L167.164307,117.316414L167.127991,116.952324L167.086136,116.568016L167.032547,116.075859L166.986908,115.608276L166.948578,115.165909L166.917847,114.749542L166.894745,114.359917L166.879395,113.997787L166.87146,113.663841L166.871094,113.358826L166.878143,113.083473L166.892944,112.83857L166.915222,112.624809L166.945038,112.442932L166.982239,112.293648L167.02713,112.177757L167.079483,112.095955L167.139297,112.048965L167.199402,112.041908L167.268768,112.071053L167.347153,112.135323L167.433563,112.233566L167.527725,112.3647L167.629028,112.527611L167.737061,112.721237L167.850983,112.944397L167.970612,113.196075L168.095001,113.475075L168.223969,113.780357L168.356659,114.110771L168.492966,114.465279L168.631836,114.842697L168.773148,115.241997L168.916046,115.661995L169.041382,116.029686L169.161102,116.366196L169.273819,116.668343L169.378403,116.933006L169.47345,117.156998L169.557816,117.337181L169.629974,117.47039L169.661163,117.518394L169.68895,117.553482L169.768509,117.626968L169.86467,117.691574L169.974213,117.746361L170.094482,117.790459L170.222366,117.82296L170.355072,117.842987L170.489807,117.849648L170.623474,117.842026L170.646545,117.832764L170.668671,117.810394L170.689911,117.775063L170.710175,117.726852L170.748093,117.592354L170.781784,117.407707L170.811386,117.173836L170.836731,116.89167L170.857727,116.562103L170.874207,116.186028L170.887436,115.858139L170.902557,115.572075L170.920242,115.322151L170.941116,115.102669L170.965897,114.907898L170.995163,114.732155L171.06958,114.414848L171.105423,114.328941L171.152985,114.281639L171.210541,114.270912L171.277466,114.294899L171.352203,114.351601L171.433929,114.43914L171.521057,114.555519L171.612869,114.698845L171.707977,114.86718L171.805115,115.058556L171.903244,115.271034L172.001404,115.502731L172.098175,115.751671L172.192383,116.0159L172.368729,116.582558L172.443146,116.884056L172.507172,117.222328L172.560394,117.593437L172.602417,117.993416L172.63266,118.418297L172.651443,118.864243L172.657761,119.327194L172.651657,119.803307L172.652328,120.064629L172.668076,120.309387L172.69809,120.535072L172.74176,120.739189L172.798431,120.919281L172.867401,121.072823L172.948242,121.197372L173.040253,121.290436L173.148926,121.348358L173.295471,121.38855L173.465515,121.411247L173.64502,121.41674L173.819031,121.40519L173.973602,121.376907L174.094391,121.332123L174.137512,121.303604L174.166779,121.271049L174.184158,121.225021L174.198547,121.149055L174.209747,121.047173L174.217529,120.923401L174.221985,120.781799L174.222382,120.626297L174.211731,120.289955L174.203583,119.935181L174.220352,119.606949L174.262848,119.30246L174.33194,119.018929L174.428375,118.753563L174.553162,118.503578L174.707123,118.266197L174.8909,118.038597L175.034439,117.885605L175.196671,117.726448L175.533203,117.425911L175.685898,117.302681L175.81369,117.209572L175.865173,117.177193L175.906021,117.155708L175.935394,117.146309L175.951706,117.150108L175.961166,117.168152L175.977234,117.207169L175.998825,117.264687L176.02536,117.338326L176.089478,117.524109L176.162628,117.745003L176.314728,118.151024L176.500244,118.542183L176.713318,118.910362L176.94754,119.247406L177.196655,119.545143L177.324905,119.67672L177.454666,119.795448L177.58493,119.900246L177.715149,119.990143L177.844437,120.064079L177.971985,120.121063L178.146149,120.167336L178.349869,120.188667L178.572632,120.186745L178.803223,120.163124L179.03093,120.119453L179.244568,120.057297L179.433411,119.978294L179.586441,119.884041L179.725891,119.766006L179.835175,119.647408L179.916183,119.522781L179.970428,119.386612L179.999268,119.233345L180.004333,119.05751L179.987366,118.853592L179.949936,118.616081L179.86853,118.282814L179.748688,117.955017L179.590302,117.63269L179.393433,117.315842L179.157898,117.004433L178.883774,116.698471L178.571091,116.397957L178.219833,116.102905L178.038666,115.956642L177.877625,115.81987L177.737869,115.693634L177.620361,115.578911L177.525726,115.476646L177.455429,115.387924L177.410126,115.313683L177.390976,115.254944L177.389526,115.188202L177.398575,115.111206L177.444809,114.933014L177.522903,114.733528L177.62529,114.525742L177.74527,114.32283L177.875244,114.137817L178.008881,113.983871L178.138519,113.874031L178.267548,113.800423L178.405411,113.745415L178.552109,113.708984L178.70755,113.691086L178.871552,113.691719L179.044312,113.710884L179.225494,113.748512L179.415161,113.804604L179.613037,113.879112L179.819641,113.972099L180.034302,114.083458L180.257187,114.213188L180.488144,114.361275L180.727585,114.527733L180.974594,114.712463L181.229797,114.915504L182.083496,115.614571L182.264099,116.7211L182.3479,117.166328L182.456314,117.635735L182.582596,118.109138L182.720551,118.566406L182.863556,118.987373L182.934998,119.17794L183.00531,119.351875L183.073547,119.506638L183.139175,119.639748L183.201233,119.74865L183.25885,119.830841L183.358826,119.927856L183.477646,119.982422L183.550522,119.995445L183.635529,119.999802L183.73526,119.996155L183.85231,119.985184L184.026535,119.961533L184.154953,119.925758L184.203049,119.898697L184.240707,119.862968L184.268402,119.81675L184.286743,119.758202L184.295959,119.685425L184.296341,119.596565L184.288467,119.489746L184.272614,119.363121L184.249283,119.214828L184.218689,119.042976L184.181198,118.845688L184.137634,118.621178L184.096252,118.40358L184.051407,118.15464L184.004105,117.883018L183.956207,117.597534L183.863846,117.019791L183.822357,116.745026L183.785873,116.491295L183.759216,116.298569L183.736038,116.127205L183.716843,115.975502L183.701141,115.841621L183.689285,115.723831L183.681046,115.620323L183.676437,115.44915L183.68718,115.313896L183.713898,115.200417L183.756622,115.09449L183.815735,114.981941L184.008148,114.637665L184.431473,114.813187L184.60405,114.898354L184.802704,115.020088L185.023621,115.174423L185.262466,115.357323L185.514999,115.564766L185.77742,115.792831L186.315186,116.294662L186.842575,116.830795L187.092255,117.101738L187.327042,117.369263L187.542877,117.629379L187.735657,117.878082L187.901306,118.111389L188.035629,118.325256L188.05925,118.371956L188.084946,118.434212L188.112625,118.511696L188.142334,118.604164L188.174133,118.711319L188.207626,118.832817L188.243027,118.968422L188.279846,119.117752L188.318634,119.280602L188.358795,119.456612L188.443634,119.847008L188.533661,120.28653L188.628815,120.772873L188.917984,122.237473L189.225418,123.705261L189.547806,125.163582L189.881149,126.599709L190.222031,128.000977L190.39415,128.684601L190.566727,129.354706L190.739395,130.009766L190.911652,130.648163L191.082886,131.268326L191.253113,131.868698L191.421326,132.447632L191.58725,133.003571L191.750717,133.534958L191.910889,134.040161L192.067505,134.517609L192.220322,134.965759L192.36821,135.382935L192.511459,135.767624L192.649139,136.118195L192.781097,136.433136L192.906601,136.710754L193.025131,136.949524L193.136749,137.147858L193.240646,137.304184L193.336243,137.41687L193.423401,137.484375L193.53157,137.532364L193.643753,137.56424L193.754715,137.580292L193.859436,137.580902L193.952637,137.566437L194.029449,137.537231L194.084885,137.493652L194.113495,137.436035L194.112823,137.391632L194.10051,137.312531L194.077637,137.203156L194.045242,137.067932L194.004852,136.911316L193.95697,136.737656L193.844284,136.357086L193.620712,135.620483L193.401047,134.864838L193.182724,134.080902L192.963364,133.259308L192.852448,132.831512L192.740372,132.390839L192.626801,131.936096L192.511368,131.466125L192.39386,130.979797L192.27417,130.475952L192.15155,129.9534L192.025879,129.41098L191.834579,128.572845L191.651627,127.759369L191.47731,126.970299L191.311661,126.205414L191.154465,125.464447L191.005722,124.747147L190.865402,124.053253L190.733353,123.38253L190.609787,122.734734L190.494568,122.109627L190.387619,121.50692L190.288971,120.926407L190.198547,120.367828L190.116226,119.830902L190.042328,119.315453L189.976471,118.821167L189.918732,118.347816L189.869095,117.895157L189.827362,117.462921L189.793839,117.050896L189.768295,116.658821L189.750473,116.286392L189.740707,115.933449L189.739044,115.599709L189.745087,115.284912L189.758881,114.9888L189.780624,114.711159L189.809921,114.451691L189.847229,114.21022L189.892044,113.986427L189.944534,113.780098L190.00473,113.590981L190.087463,113.378532L190.17627,113.191483L190.271973,113.029778L190.374863,112.893257L190.485733,112.781845L190.605438,112.69548L190.7341,112.63398L190.872665,112.597305L191.021729,112.585342L191.181671,112.597954L191.353302,112.635071L191.537201,112.696579L191.73378,112.782356L191.943954,112.892349L192.168198,113.026413L192.407166,113.184471L192.671051,113.377975L192.92337,113.587769L193.16861,113.81884L193.411362,114.076157L193.655716,114.36467L193.906403,114.689384L194.167999,115.055283L194.444366,115.467255L194.548141,115.625137L194.641525,115.765968L194.7258,115.890709L194.801666,116.000237L194.869934,116.095467L194.931229,116.177254L195.037125,116.30426L195.125916,116.388466L195.203873,116.437019L195.278198,116.45723L195.355057,116.45623L195.426605,116.445938L195.481628,116.431808L195.521484,116.411575L195.547348,116.382957L195.56073,116.343719L195.562836,116.29155L195.555038,116.22422L195.538757,116.139473L195.510788,116.029297L195.472305,115.906181L195.367142,115.628502L195.231201,115.321434L195.072128,114.999931L194.897598,114.678955L194.7155,114.373482L194.533508,114.09848L194.445084,113.977119L194.35965,113.86898L194.142609,113.621376L193.914276,113.387283L193.675934,113.167328L193.428421,112.962044L193.173386,112.772072L192.911804,112.598L192.644913,112.440414L192.374252,112.29995L192.100677,112.177162L191.825653,112.072678L191.550354,111.987076L191.276108,111.92099L191.003815,111.874962L190.735367,111.849655L190.471329,111.845627L190.213364,111.863487L189.911026,111.910263L189.634949,111.980011L189.383789,112.074417L189.157028,112.195305L188.953735,112.344421L188.773209,112.523582L188.614014,112.734474L188.475998,112.978958L188.357697,113.258713L188.258713,113.575584L188.177841,113.931297L188.11441,114.327644L188.067474,114.766396L188.036224,115.249313L188.019653,115.778152L188.017151,116.354736L188.017166,116.534203L188.014359,116.673653L188.007431,116.775749L187.996033,116.843323L187.979538,116.879158L187.956955,116.885963L187.92749,116.866524L187.890457,116.823586L187.817291,116.731636L187.728012,116.625801L187.624466,116.50808L187.508606,116.380463L187.248062,116.103577L186.962646,115.811264L186.66806,115.519562L186.380447,115.244522L186.115494,115.002182L185.996475,114.898285L185.889236,114.808601L185.590393,114.581421L185.295807,114.390129L185.00264,114.233696L184.707626,114.111031L184.408325,114.021126L184.101334,113.962891L183.784088,113.935303L183.453293,113.937286L183.334854,113.943268L183.229797,113.949356L183.054443,113.963585L182.917557,113.983635L182.808975,114.013115L182.718506,114.05558L182.63652,114.114716L182.552811,114.194122L182.457352,114.297394L182.16423,114.623375L181.357208,113.994843L181.160583,113.845413L180.969818,113.708595L180.603256,113.471634L180.250153,113.281281L179.903137,113.134903L179.554871,113.029808L179.198364,112.963432L178.825592,112.932991L178.429733,112.935913L178.116089,112.960075L177.824326,113.003174L177.554169,113.06559L177.305267,113.147713L177.077179,113.249901L176.86969,113.372566L176.682373,113.516083L176.514999,113.68084L176.367126,113.86721L176.238556,114.0756L176.128586,114.306328L176.037247,114.559837L175.964005,114.836479L175.908752,115.136673L175.870789,115.460754L175.849915,115.80912L175.845337,115.935555L175.840729,116.04705L175.835693,116.144562L175.82991,116.229095L175.814285,116.363098L175.791046,116.456955L175.757538,116.5186L175.710571,116.555855L175.647461,116.576645L175.565552,116.588875L175.512512,116.598053L175.44278,116.614952L175.358856,116.638824L175.262787,116.668884L175.042068,116.744286L174.797119,116.834755L174.301849,117.035599L174.084885,117.133247L173.99118,117.178566L173.910309,117.220535L173.840378,117.250168L173.775772,117.245468L173.742706,117.224998L173.707611,117.189644L173.668915,117.137238L173.625885,117.065742L173.577057,116.972992L173.521454,116.856926L173.457764,116.715401L173.38472,116.546295L173.301392,116.347549L173.20639,116.117012L173.098587,115.852592L172.977036,115.552193L172.903198,115.37133L172.833847,115.204247L172.768295,115.050255L172.706604,114.90876L172.592468,114.660446L172.488892,114.454124L172.392624,114.284462L172.301117,114.146255L172.211578,114.034233L172.121155,113.943176L171.960251,113.809853L171.798676,113.69796L171.637604,113.607437L171.477921,113.538124L171.320129,113.489845L171.165482,113.462532L171.01442,113.455956L170.867859,113.470016L170.726807,113.504578L170.59201,113.559509L170.464111,113.634628L170.344162,113.729843L170.233124,113.845009L170.131531,113.979965L170.040131,114.134529L169.96022,114.308662L169.897491,114.453262L169.836945,114.57267L169.785919,114.654518L169.766129,114.677498L169.751251,114.686455L169.730347,114.667183L169.693405,114.60936L169.642517,114.51709L169.579712,114.394493L169.507095,114.245682L169.426682,114.074776L169.340546,113.885872L169.250732,113.683121L169.10144,113.350929L168.955643,113.046181L168.812408,112.768036L168.671051,112.515678L168.530609,112.288269L168.390411,112.084999L168.249649,111.905052L168.107376,111.747574L167.962906,111.611763L167.81546,111.496796L167.664154,111.40184L167.50824,111.326088L167.346771,111.268654L167.179276,111.228813L167.004471,111.205643L166.821899,111.198395L166.687943,111.200813L166.578003,111.209084L166.486618,111.225685L166.40834,111.253052L166.337967,111.293701L166.27005,111.35009L166.198975,111.42466L166.119705,111.519951L166.11969,111.519981zM178.275467,117.738838L178.368225,117.939781L178.448669,118.156647L178.514801,118.377998L178.564178,118.592354L178.594757,118.788269L178.604034,118.954231L178.600067,119.0224L178.590088,119.078819L178.573563,119.121986L178.550507,119.150543L178.506531,119.162621L178.445282,119.149811L178.374756,119.115021L178.303345,119.061234L178.165924,118.924866L178.043793,118.775826L177.936096,118.611961L177.841644,118.431084L177.75946,118.231018L177.688812,118.009636L177.62851,117.764732L177.577301,117.49411L177.449646,116.719551L177.735107,116.982994L177.797516,117.045937L177.865936,117.124107L178.011536,117.313683L178.153992,117.526863L178.275467,117.738838z"/>
    <path transform="matrix(1,0,0,-1,0,0)" style="stroke:none;fill:#500a78;fill-rule:evenodd" d="M166.119705,111.519951L166.11969,111.519981L166.119705,111.519951z"/>
    <path transform="matrix(1,0,0,-1,0,0)" style="stroke:none;fill:#500a78;fill-rule:evenodd" d="M196.70018,116.024429L196.541046,116.139015L196.394958,116.263779L196.261627,116.398872L196.141174,116.544479L196.033447,116.700798L195.938248,116.867973L195.855728,117.046219L195.78569,117.235718L195.728378,117.436661L195.683136,117.649147L195.650558,117.873474L195.630234,118.109764L195.621994,118.358177L195.625961,118.618912L195.642242,118.892189L195.670395,119.178139L195.722305,119.540932L195.791245,119.888573L195.878555,120.223335L195.98465,120.547386L196.110199,120.862938L196.256241,121.172218L196.423767,121.477486L196.613159,121.780876L196.717468,121.933563L196.819382,122.072716L197.019592,122.312149L197.219284,122.502571L197.424606,122.647476L197.641251,122.750259L197.875214,122.814407L198.132401,122.843384L198.418503,122.840569L198.676666,122.814186L198.905716,122.766006L199.107147,122.695183L199.282394,122.600838L199.432404,122.482048L199.559021,122.338005L199.663239,122.167763L199.74649,121.970459L199.785522,121.814499L199.799622,121.644394L199.790024,121.461853L199.757706,121.268509L199.703354,121.065979L199.627899,120.855911L199.532455,120.639946L199.417816,120.419746L199.285126,120.196953L199.134781,119.973122L198.968124,119.749992L198.786011,119.52916L198.589218,119.312263L198.378769,119.100945L198.155563,118.896851L197.920334,118.701584L197.763046,118.576294L197.625259,118.463638L197.506485,118.361809L197.405731,118.268936L197.322678,118.183197L197.256348,118.102745L197.206497,118.02578L197.171936,117.950386L197.152527,117.87484L197.147339,117.797218L197.155869,117.715721L197.177444,117.628525L197.211121,117.533745L197.256531,117.429573L197.313126,117.314201L197.379868,117.185745L197.46167,117.041527L197.546967,116.911644L197.636002,116.795944L197.729218,116.694283L197.827164,116.606583L197.93013,116.532654L198.038391,116.472374L198.152786,116.425667L198.273056,116.392281L198.400055,116.372169L198.534012,116.365196L198.6754,116.371193L198.824509,116.390038L198.981979,116.421616L199.147751,116.465752L199.322601,116.522339L199.440399,116.569527L199.576538,116.634438L199.727982,116.714989L199.891968,116.809128L200.245987,117.029884L200.614578,117.280014L200.974152,117.5429L201.301392,117.801933L201.445129,117.924759L201.572144,118.040421L201.679153,118.146774L201.763092,118.241753L201.785919,118.276924L201.813507,118.331909L201.845856,118.405922L201.882446,118.49807L201.923248,118.607559L201.967728,118.733498L202.015747,118.875084L202.067154,119.031509L202.121552,119.201881L202.178772,119.385399L202.300125,119.788429L202.429153,120.23391L202.563629,120.715111L202.690536,121.172813L202.814499,121.611862L202.932404,122.021797L203.041016,122.392113L203.090958,122.559166L203.13736,122.712379L203.179871,122.850441L203.218323,122.972092L203.25206,123.075981L203.280518,123.160767L203.303879,123.22522L203.321396,123.267998L203.381607,123.381042L203.451019,123.477554L203.529602,123.557426L203.61676,123.620491L203.712601,123.666656L203.81665,123.69574L203.928772,123.707634L204.048859,123.702232L204.112259,123.689171L204.158234,123.655052L204.187073,123.582672L204.195084,123.526756L204.199097,123.454842L204.198868,123.364754L204.19487,123.25441L204.186768,123.121597L204.174728,122.96418L204.158829,122.780022L204.139236,122.566994L204.115753,122.322914L204.088318,122.045601L203.927277,120.41185L204.93364,121.972717L205.140564,122.290169L205.342484,122.593811L205.534302,122.876457L205.71109,123.130959L205.867889,123.350136L205.936996,123.444191L205.999374,123.526756L206.054016,123.59687L206.100754,123.653702L206.138504,123.696281L206.166901,123.72377L206.223236,123.764809L206.296539,123.808594L206.482239,123.899017L206.69899,123.984192L206.922028,124.053314L206.973083,124.065331L207.047089,124.08062L207.142578,124.098961L207.257599,124.120049L207.391113,124.143715L207.541397,124.169716L207.70639,124.197716L207.885147,124.227577L208.276917,124.291771L208.703522,124.360283L209.611359,124.502548L210.067337,124.572388L210.50766,124.638748L210.919998,124.69973L211.291412,124.753319L211.457886,124.776749L211.60936,124.7976L211.744247,124.81562L211.86113,124.830582L211.958298,124.842247L212.034302,124.85038L212.087341,124.854698L212.116074,124.854996L212.133316,124.864952L212.149872,124.895477L212.174103,124.999405L212.19487,125.067688L212.236404,125.122604L212.292603,125.16275L212.357391,125.186752L212.424942,125.193253L212.489456,125.180908L212.544952,125.148354L212.58551,125.094208L212.591049,125.038765L212.60376,125.018364L212.647766,125.006088L212.686935,125.003716L212.740936,125.004288L212.811584,125.008049L212.90152,125.015343L213.013092,125.026489L213.148117,125.041725L213.30928,125.061378L213.498642,125.085747L213.718689,125.11515L213.97168,125.149887L214.259689,125.190224L214.585098,125.236473L214.950256,125.288948L215.357285,125.347923L215.808777,125.41375L216.306732,125.486671L216.853516,125.567009L217.145935,125.610062L217.451309,125.655052L217.770187,125.70208L218.102661,125.751137L218.44902,125.802269L218.809662,125.85553L219.184814,125.91095L219.574524,125.968529L219.979538,126.028366L220.399872,126.090477L220.835663,126.154854L221.28743,126.221588L221.755432,126.290718L222.239944,126.362251L223.040558,126.480423L223.870789,126.602913L224.723938,126.728752L225.593857,126.857033L227.357407,127.116966L229.108917,127.375L229.964066,127.500938L230.796417,127.623482L231.599976,127.741737L232.367905,127.854736L233.093689,127.961479L233.438904,128.012238L233.771149,128.061066L234.089371,128.107849L234.393219,128.152466L234.681717,128.194855L234.953751,128.234772L235.50621,128.316406L236.104614,128.405777L236.743362,128.502045L237.416656,128.60434L238.118652,128.71167L238.843964,128.823273L240.340622,129.05542L241.861389,129.293762L243.359955,129.531036L244.086761,129.647079L244.791077,129.760223L245.466812,129.869507L246.108719,129.974121L246.433609,130.027283L246.785431,130.084885L247.162582,130.146622L247.564163,130.212357L247.989014,130.281921L248.435532,130.355011L248.903229,130.43158L249.390762,130.511383L249.896606,130.594208L250.419937,130.679871L250.959732,130.76825L251.514572,130.8591L252.083359,130.952209L252.664963,131.047455L253.862274,131.243469L255.097336,131.445694L256.360596,131.652542L258.936035,132.074249L261.514832,132.496521L262.782562,132.704102L264.02359,132.907349L265.234863,133.105652L266.415222,133.298859L267.558319,133.485916L268.658203,133.665802L269.189941,133.752777L269.70816,133.837524L270.21283,133.920013L270.702515,134.000031L271.176605,134.077515L271.634521,134.152313L272.075317,134.224304L272.498352,134.293396L272.902466,134.359344L273.287476,134.42218L273.651978,134.481659L273.995605,134.537689L274.317413,134.590149L274.616608,134.638885L274.8927,134.683838L275.14447,134.724792L275.371429,134.761688L275.572632,134.794373L275.747345,134.822693L275.894897,134.846558L276.014465,134.865845L276.105286,134.880432L276.166351,134.890106L276.197083,134.894836L276.293152,134.913849L276.376038,134.949341L276.454285,135.014465L276.536682,135.122375L276.582031,135.196472L276.631561,135.286194L276.686401,135.393188L276.74762,135.519073L276.816345,135.665527L276.893341,135.834137L276.980133,136.026611L277.077423,136.244537L277.195343,136.507813L277.307129,136.754791L277.410156,136.980011L277.501892,137.177917L277.579803,137.343079L277.641174,137.469894L277.683655,137.552948L277.697021,137.576355L277.70459,137.5867L277.720703,137.586136L277.764221,137.580887L277.834473,137.571075L277.930481,137.556763L278.051727,137.538116L278.197754,137.515289L278.367554,137.488281L278.560547,137.457306L278.77594,137.422394L279.013367,137.383728L279.271912,137.341431L279.550842,137.295532L279.84967,137.246246L280.167633,137.193634L280.503723,137.137756L280.857819,137.078842L281.228943,137.016937L281.616455,136.952179L282.019531,136.884644L282.437683,136.814484L282.870178,136.741791L283.316376,136.666718L284.246521,136.509735L285.223389,136.344543L286.240784,136.171936L287.293762,135.99292L288.376526,135.80835L289.46051,135.623413L290.517151,135.443359L291.541077,135.269135L292.526062,135.101624L293.467041,134.941849L293.919128,134.865128L294.358032,134.79068L294.783173,134.718658L295.193909,134.649139L295.589081,134.582214L295.968597,134.518097L296.331329,134.456848L296.676636,134.39856L297.004028,134.343399L297.312683,134.291473L297.601776,134.242844L297.870789,134.197723L298.118958,134.156158L298.34552,134.118301L298.549927,134.084259L298.731293,134.054138L298.889038,134.028107L299.022583,134.006226L299.130737,133.988617L299.213409,133.975433L299.269592,133.966797L299.298706,133.962799L299.396362,133.937439L299.511841,133.873871L299.579834,133.824188L299.656738,133.760712L299.743652,133.682037L299.842194,133.5867L299.953796,133.473328L300.079956,133.3405L300.221802,133.186768L300.381256,133.010803L300.559265,132.811096L300.757355,132.586273L300.977112,132.3349L301.219849,132.055573L301.546753,131.677521L301.8526,131.322205L302.130646,130.99765L302.256866,130.849335L302.373688,130.711731L302.480072,130.585739L302.575439,130.472458L302.658569,130.372803L302.728943,130.287781L302.785583,130.218445L302.827515,130.16568L302.853973,130.130585L302.864319,130.114105L302.851013,130.108398L302.809814,130.097473L302.741547,130.081512L302.647522,130.06073L302.528046,130.035217L302.384277,130.005219L302.217285,129.970856L302.027649,129.932312L301.816528,129.889771L301.584717,129.843384L301.332947,129.793335L301.062347,129.739777L300.773743,129.682892L300.467957,129.622864L300.145996,129.559845L299.808655,129.493988L299.456787,129.425507L299.091431,129.354523L298.323486,129.205811L297.511963,129.049194L296.664154,128.886078L295.786865,128.717773L294.887543,128.545685L293.05127,128.195526L291.211884,127.846428L290.308838,127.675644L289.426758,127.509239L288.572266,127.348511L287.75293,127.194862L286.975647,127.049629L286.605103,126.980583L286.24762,126.914162L285.904358,126.850517L285.576172,126.789848L285.263733,126.732269L284.968018,126.677994L284.690033,126.627174L284.430603,126.580009L284.190735,126.536629L283.971222,126.497246L283.772705,126.46196L283.596497,126.431015L283.44342,126.404579L283.314209,126.382767L283.209686,126.365761L283.13092,126.353752L283.078796,126.346924L283.054016,126.34539L283.009674,126.360565L282.97522,126.391884L282.95459,126.434837L282.95105,126.484856L282.961914,126.500732L282.991089,126.521385L283.037506,126.546486L283.100525,126.575783L283.179199,126.608963L283.272827,126.645744L283.380493,126.685829L283.501282,126.728928L283.77948,126.823059L284.100372,126.925766L284.457825,127.034775L284.844971,127.147758L285.062683,127.209358L285.322449,127.281776L285.621399,127.364258L285.956421,127.456017L286.324829,127.556313L286.723663,127.664391L287.150208,127.779488L287.601624,127.900894L288.074707,128.027771L288.567017,128.159439L289.07547,128.295105L289.597382,128.434052L290.669312,128.718597L291.760559,129.007141L292.8479,129.29361L293.908325,129.57193L294.421265,129.706146L294.919189,129.83609L295.398743,129.960968L295.857483,130.080048L296.29245,130.192581L296.700562,130.297791L297.079102,130.394897L297.425293,130.483246L297.736206,130.561966L298.008728,130.630341L298.24054,130.687653L298.428284,130.733109L298.655396,130.787567L298.868774,130.839371L299.063538,130.88736L299.235107,130.930328L299.378723,130.967072L299.48938,130.996368L299.562439,131.016998L299.593079,131.027756L299.593872,131.03949L299.582336,131.06369L299.559631,131.098907L299.526917,131.143707L299.436951,131.256653L299.322144,131.391235L299.057495,131.680298L298.927307,131.812286L298.811646,131.920929L298.776367,131.940887L298.711914,131.963623L298.617126,131.989319L298.490845,132.018112L298.332062,132.050232L298.139465,132.085831L297.911987,132.125092L297.648499,132.168213L297.348022,132.215363L297.009064,132.266724L296.630676,132.322479L296.211975,132.382828L295.751465,132.447906L295.248047,132.517944L294.70105,132.593109L294.108643,132.673553L293.618835,132.740082L293.090576,132.812439L292.528748,132.889862L291.938538,132.97171L291.324799,133.057251L290.692352,133.145782L289.391602,133.329041L288.075867,133.515869L286.785095,133.700684L286.161285,133.790558L285.558716,133.877838L284.982147,133.961792L284.436554,134.041748L284.045868,134.099075L283.674805,134.153427L283.322632,134.204803L282.989136,134.253326L282.673553,134.299011L282.375427,134.341919L282.094421,134.382111L281.830017,134.419647L281.581665,134.454575L281.34906,134.486984L281.131592,134.516907L280.928711,134.544388L280.740051,134.569519L280.565002,134.592316L280.254333,134.631256L279.992737,134.661621L279.77655,134.68396L279.601654,134.698669L279.464355,134.706207L279.361023,134.707062L279.287537,134.701706L279.240356,134.690613L279.215393,134.674194L279.188629,134.63147L279.148712,134.555969L279.098022,134.451904L279.038239,134.323486L278.971191,134.174866L278.899078,134.010284L278.746887,133.65004L278.59671,133.294556L278.526947,133.13559L278.463074,132.9944L278.406921,132.874908L278.360413,132.781128L278.325195,132.716949L278.303192,132.686371L278.267639,132.672668L278.231079,132.662933L278.181854,132.651215L278.119019,132.63736L278.042053,132.621277L277.950989,132.602997L277.844971,132.582336L277.723846,132.559296L277.586731,132.533691L277.433563,132.505524L277.263641,132.474701L277.076477,132.441071L276.871826,132.404663L276.648987,132.365295L276.407715,132.322968L276.147491,132.277588L275.867676,132.229004L275.568115,132.177216L275.247925,132.122101L274.907104,132.063583L274.544983,132.001617L274.160919,131.936035L273.754761,131.866867L273.325867,131.793945L272.873718,131.717224L272.398071,131.636642L271.898254,131.552063L271.374023,131.46347L270.824829,131.370758L270.249939,131.273804L269.64917,131.172577L269.354065,131.123215L269.019318,131.067871L268.647278,131.006912L268.24054,130.940735L267.801453,130.86972L267.332642,130.79425L266.836609,130.714737L266.316132,130.631622L265.773071,130.545166L265.210388,130.455872L264.630554,130.364105L264.036163,130.270264L262.813019,130.07782L261.561218,129.881744L259.051422,129.491135L257.833527,129.302856L257.242462,129.211823L256.667053,129.123444L256.109283,129.038055L255.571991,128.956055L255.057709,128.877838L254.568604,128.803802L254.107376,128.734314L253.676682,128.6698L253.278656,128.610611L252.916168,128.55719L251.983658,128.420654L251.090729,128.290436L250.234161,128.166077L249.411682,128.047302L248.620255,127.933762L247.857285,127.825104L247.119873,127.721001L246.40538,127.621109L245.711044,127.525093L245.034119,127.432617L243.721451,127.256912L242.445023,127.09124L241.183533,126.932999L239.914368,126.77935L238.615891,126.62767L237.948654,126.551704L237.265976,126.475227L236.564835,126.397858L235.842438,126.319267L235.096313,126.239143L234.323578,126.157127L233.521591,126.072906L232.687332,125.986092L231.818176,125.89637L230.911484,125.803413L229.964508,125.706894L228.97435,125.60643L226.887268,125.395271L225.861984,125.291656L224.8508,125.189537L223.854874,125.089043L222.875977,124.990349L221.9151,124.893539L220.974014,124.798805L220.053741,124.706245L219.155762,124.61599L218.281479,124.528206L217.432388,124.443039L216.609909,124.360619L215.814987,124.281029L215.049728,124.204521L214.314774,124.131111L213.611862,124.061005L212.942566,123.994347L212.307938,123.931252L211.709427,123.871849L211.148621,123.816307L210.626572,123.764717L210.144852,123.717262L209.704803,123.674049L209.307999,123.635246L208.955475,123.600967L208.649109,123.571404L208.389679,123.546593L208.179031,123.526764L208.018341,123.512016L207.957184,123.506584L207.909073,123.50248L207.874023,123.49971L207.852417,123.498306L207.734985,123.485191L207.637268,123.455849L207.557251,123.4067L207.491898,123.334076L207.439041,123.234383L207.396286,123.104034L207.360855,122.939354L207.330582,122.736794L207.31601,122.629089L207.303131,122.550255L207.289978,122.49894L207.27449,122.473785L207.255249,122.473526L207.230194,122.496803L207.197769,122.54232L207.155792,122.608704L207.112503,122.677406L207.07666,122.726089L207.04454,122.754494L207.011505,122.762238L206.973877,122.749054L206.927399,122.714622L206.867828,122.6586L206.791092,122.580666L206.73143,122.511856L206.655869,122.411949L206.565155,122.282715L206.46077,122.12603L206.343552,121.943687L206.214615,121.737518L206.075104,121.509346L205.926178,121.261002L205.768631,120.994263L205.603668,120.710991L205.432755,120.413033L205.256302,120.102142L204.892578,119.449013L204.521027,118.766151L204.30397,118.367455L204.100998,118.005905L203.910858,117.680077L203.732422,117.388565L203.564026,117.129906L203.404678,116.902702L203.252747,116.705467L203.107193,116.536835L202.9664,116.395317L202.829376,116.279518L202.694565,116.187988L202.560608,116.119301L202.426376,116.072014L202.290482,116.044716L202.151505,116.035965L202.008224,116.044319L201.886047,116.068031L201.783051,116.109291L201.699448,116.168427L201.634827,116.245659L201.588715,116.341194L201.561462,116.455391L201.552673,116.588463L201.562149,116.740677L201.569092,116.821579L201.563782,116.875488L201.539368,116.899849L201.489273,116.892136L201.406357,116.849739L201.350601,116.814758L201.284088,116.770142L201.2061,116.715591L201.115601,116.650764L201.011841,116.57534L200.894196,116.489059L200.710861,116.358017L200.533905,116.238853L200.194138,116.034653L199.866043,115.873772L199.540939,115.75351L199.210373,115.671234L198.865402,115.624214L198.497314,115.609772L198.097443,115.625198L197.951538,115.635811L197.820801,115.646217L197.598618,115.668274L197.418167,115.694954L197.266998,115.729912L197.131973,115.776672L197.00119,115.838982L196.861237,115.920326L196.70018,116.024429zM197.99173,120.324326L198.117203,120.578209L198.218582,120.80899L198.295807,121.017082L198.349213,121.202934L198.378586,121.36692L198.384155,121.509499L198.366257,121.631104L198.324524,121.732124L198.285843,121.794373L198.251495,121.835693L198.217407,121.854095L198.179047,121.847603L198.132507,121.814278L198.07373,121.752167L197.998169,121.659264L197.902115,121.533661L197.773209,121.349602L197.657425,121.154892L197.554169,120.949966L197.464111,120.735451L197.387482,120.511909L197.32431,120.279854L197.274918,120.039848L197.239624,119.792488L197.18457,119.30558L197.461182,119.569992L197.521957,119.633102L197.588638,119.711311L197.731186,119.900658L197.871323,120.113235L197.991592,120.32431L197.99173,120.324326zM197.991592,120.32431L197.99173,120.324326L197.991592,120.32431z"/>
    <path transform="matrix(1,0,0,-1,0,0)" style="stroke:none;fill:#500a78;fill-rule:evenodd" d="M183.370972,121.961014L183.225876,122.064034L183.121994,122.180527L183.056808,122.307487L183.027878,122.441902L183.032928,122.580811L183.069489,122.721169L183.135193,122.860008L183.227402,122.994278L183.343918,123.121017L183.482361,123.237221L183.640381,123.33989L183.815353,123.42601L184.005188,123.492607L184.20723,123.536652L184.419022,123.555138L184.638474,123.545097L184.987259,123.505409L184.839432,123.004395L184.755997,122.737129L184.674744,122.514877L184.592896,122.333115L184.507355,122.187294L184.414825,122.072838L184.3125,121.985214L184.19693,121.919838L184.065277,121.872177L183.935913,121.834412L183.840576,121.807884L183.76799,121.793877L183.707764,121.793877L183.64856,121.809166L183.580017,121.841209L183.491211,121.891373L183.370972,121.960991L183.370972,121.961014z"/>
    <path transform="matrix(1,0,0,-1,0,0)" style="stroke:none;fill:#500a78;fill-rule:evenodd" d="M154.111481,109.795006L154.111481,109.795021L154.111481,109.795006z"/>
</svg>
