<svg xmlns="http://www.w3.org/2000/svg" viewBox="133.14 -139.59 171.73 41.17">
    <g transform="matrix(1,0,0,-1,0,0)" fill="#C87941" fill-rule="evenodd">
        <path d="M138.885956,100.58564L138.754013,100.673378L138.648834,100.767403L138.568512,100.872276L138.511826,100.992691L138.476868,101.133232L138.462021,101.298546L138.465637,101.493217L138.486328,101.721931L138.520554,101.935608L138.575775,102.161766L138.651978,102.400665L138.749237,102.652519L138.86795,102.917633L139.008179,103.19622L139.169891,103.488525L139.353607,103.794838L139.559128,104.115364L139.786713,104.450371L140.03656,104.80011L140.309052,105.164871L140.603882,105.544823L140.921417,105.940262L141.261871,106.351448L141.62561,106.778656L142.071808,107.291344L142.534332,107.81279L143.498932,108.87233L144.499939,109.937988L145.518738,110.99057L146.536743,112.010948L147.039169,112.502991L147.534531,112.979813L148.019974,113.438927L148.493439,113.878006L148.952621,114.294609L149.394928,114.686348L149.64978,114.909576L149.874054,115.10836L150.070435,115.286842L150.241425,115.44915L150.389618,115.599419L150.517822,115.741776L150.628662,115.880394L150.724869,116.019386L150.883408,116.315056L150.950928,116.47998L151.014313,116.661827L151.076111,116.864754L151.138794,117.092834L151.205521,117.350288L151.278305,117.64119L151.522003,118.671684L151.737274,119.686638L151.923737,120.681252L152.081451,121.650856L152.210175,122.590683L152.30957,123.495995L152.379791,124.362114L152.403748,124.778961L152.420502,125.184258L152.429688,125.57737L152.431458,125.95771L152.42572,126.324699L152.412689,126.677765L152.392105,127.016281L152.364014,127.339684L152.3284,127.647346L152.285309,127.938728L152.234604,128.213196L152.176239,128.470169L152.110413,128.709076L152.036804,128.929291L151.955688,129.130249L151.866837,129.31134L151.770355,129.472015L151.666199,129.611633L151.554657,129.726593L151.435974,129.818695L151.32428,129.87854L151.275589,129.893463L151.234116,129.89682L151.160599,129.880157L151.075546,129.840485L150.979065,129.778015L150.871277,129.692932L150.752274,129.585388L150.62204,129.455566L150.481049,129.303711L150.32933,129.129974L150.167206,128.93457L149.994522,128.717651L149.811798,128.479477L149.618866,128.220169L149.416107,127.939949L149.203613,127.639015L148.981628,127.317543L148.750122,126.975716L148.307983,126.308258L147.883224,125.647903L147.07045,124.319778L146.675201,123.637741L146.282532,122.934212L145.888672,122.202034L145.490295,121.434113L145.083405,120.623253L144.875885,120.199532L144.664627,119.76236L144.449646,119.310921L144.230225,118.844299L144.006165,118.361595L143.776733,117.861923L143.541443,117.344353L143.300018,116.808052L143.05191,116.252083L142.796967,115.675613L142.534302,115.077682L142.263733,114.457443L141.984497,113.81395L141.696442,113.146362L141.413467,112.488625L141.145905,111.868011L140.893799,111.28347L140.656372,110.733841L140.433136,110.217995L140.223465,109.734779L140.026978,109.283119L139.842926,108.861832L139.671051,108.469826L139.510605,108.105949L139.361084,107.769081L139.222107,107.458107L139.092941,107.171867L138.973206,106.909264L138.862244,106.669151L138.759583,106.450386L138.664597,106.251846L138.577026,106.072441L138.496124,105.911011L138.421127,105.76638L138.351929,105.637497L138.28775,105.523193L138.228119,105.422348L138.17276,105.33387L138.071381,105.189293L137.979736,105.08049L137.893585,104.998436L137.808502,104.934074L137.688263,104.870277L137.546356,104.824074L137.390839,104.795555L137.229675,104.784805L137.070923,104.791939L136.922318,104.816978L136.792145,104.860077L136.68866,104.921364L136.675568,104.944351L136.670746,104.987968L136.674179,105.054024L136.686661,105.144478L136.708435,105.261169L136.740295,105.406059L136.782486,105.581001L136.835663,105.787933L136.90033,106.028732L136.976868,106.305298L137.065689,106.619514L137.167679,106.973335L137.282974,107.368607L137.412354,107.807274L137.556061,108.291183L137.714615,108.822266L137.963348,109.653221L138.198029,110.438782L138.419174,111.180916L138.627167,111.881584L138.822754,112.542786L139.006317,113.166473L139.178223,113.754585L139.33902,114.309097L139.489319,114.831985L139.629333,115.325195L139.759888,115.790718L139.881195,116.230484L139.993912,116.646484L140.098526,117.040688L140.195282,117.415016L140.284973,117.771484L140.36795,118.112022L140.444595,118.438614L140.581329,119.057777L140.698944,119.644707L140.801514,120.215103L140.8927,120.784676L140.976563,121.369141L141.057007,121.98423L141.096985,122.308144L141.137726,122.645622L141.197388,123.158752L141.250366,123.640678L141.295868,124.080658L141.315552,124.281555L141.332733,124.46788L141.347748,124.638359L141.360153,124.791588L141.369995,124.926254L141.377197,125.041008L141.38147,125.134476L141.382721,125.205338L141.380859,125.25222L141.375748,125.273788L141.349075,125.295311L141.314972,125.303078L141.273178,125.297119L141.223923,125.277534L141.167328,125.244385L141.103424,125.197746L141.03215,125.13768L140.953781,125.06427L140.868317,124.977577L140.775742,124.877678L140.676178,124.76461L140.56987,124.638519L140.456558,124.499397L140.336624,124.347366L140.210052,124.182487L140.076859,124.004814L139.562439,123.281143L139.067108,122.523285L138.594116,121.737968L138.147385,120.932091L137.730164,120.112419L137.34639,119.285812L136.999573,118.459084L136.693512,117.639076L136.629013,117.453972L136.572403,117.289474L136.523132,117.143768L136.481323,117.015137L136.446198,116.901711L136.417633,116.801727L136.378494,116.634903L136.361404,116.500351L136.363708,116.383766L136.382721,116.270782L136.415817,116.147102L136.456177,115.991074L136.477295,115.860603L136.477997,115.752853L136.45697,115.664978L136.413284,115.59417L136.345642,115.53756L136.252869,115.492332L136.133881,115.45565L135.995148,115.434753L135.857758,115.444893L135.713287,115.487755L135.552933,115.56501L135.393707,115.674797L135.273285,115.810394L135.190536,115.97773L135.163147,116.07518L135.144928,116.182823L135.135895,116.301414L135.135681,116.431664L135.144455,116.574356L135.162201,116.73027L135.188568,116.900093L135.223419,117.084572L135.266937,117.284508L135.319,117.500626L135.462662,118.031937L135.630768,118.576996L135.82106,119.131989L136.031708,119.693138L136.26088,120.256683L136.506454,120.81884L136.766586,121.375824L137.039581,121.923889L137.323074,122.459221L137.615326,122.978043L137.914383,123.476601L138.218262,123.951088L138.525146,124.397758L138.833023,124.812828L139.139801,125.192482L139.443939,125.533012L139.623444,125.719612L139.793991,125.88929L139.957214,126.042793L140.113922,126.180771L140.26593,126.303947L140.414139,126.413002L140.705017,126.591621L140.997513,126.722252L141.302002,126.810493L141.629044,126.861946L141.989166,126.882202L142.211914,126.875832L142.413727,126.848656L142.594818,126.800812L142.754913,126.732384L142.8936,126.643402L143.011139,126.534019L143.106995,126.404236L143.181122,126.254189L143.210388,126.144241L143.229828,125.989357L143.240051,125.79348L143.241409,125.560501L143.234116,125.294296L143.218903,124.998817L143.19577,124.67791L143.16539,124.335556L143.127899,123.975578L143.083923,123.601936L142.977417,122.829163L142.848831,122.048439L142.701324,121.291039L142.637329,120.98172L142.578857,120.684784L142.526947,120.407288L142.483063,120.156372L142.448196,119.939102L142.423645,119.762604L142.41568,119.691872L142.410492,119.633942L142.408691,119.589806L142.410202,119.56028L142.417526,119.54184L142.432083,119.540337L142.45372,119.555794L142.482422,119.58828L142.518326,119.637856L142.561417,119.704582L142.611954,119.788528L142.66954,119.889717L142.734421,120.008217L142.806854,120.144135L142.886566,120.29747L142.973541,120.468285L143.068054,120.656662L143.169968,120.86264L143.27951,121.086311L143.396698,121.327721L143.660126,121.869141L143.919861,122.394051L144.176331,122.902557L144.429092,123.394707L144.678421,123.870598L144.924438,124.33033L145.167114,124.773994L145.406555,125.201668L145.642914,125.613441L145.875916,126.009384L146.106171,126.389648L146.333176,126.754234L146.557434,127.10331L146.778656,127.436913L146.997101,127.755142L147.213043,128.058136L147.426056,128.345886L147.636642,128.618561L147.844681,128.876221L148.050018,129.118942L148.253159,129.346848L148.453979,129.560013L148.652435,129.758514L148.848694,129.942429L149.042831,130.111893L149.234863,130.266937L149.424774,130.407684L149.612671,130.53418L149.798935,130.646606L149.983307,130.744995L150.165756,130.829407L150.346558,130.899963L150.752823,131.022583L151.156036,131.103271L151.552124,131.142365L151.936646,131.140076L152.305145,131.09668L152.653152,131.012421L152.976624,130.887634L153.270813,130.722473L153.393372,130.631317L153.510834,130.524216L153.623016,130.401443L153.730286,130.263367L153.831802,130.110168L153.92804,129.942215L154.01857,129.759735L154.103485,129.563049L154.182449,129.352448L154.255569,129.128189L154.32254,128.890564L154.383453,128.639862L154.437866,128.376343L154.486115,128.100372L154.527802,127.812149L154.562683,127.511971L154.587204,127.18293L154.596924,126.813568L154.59256,126.406982L154.574463,125.966209L154.542999,125.494286L154.498505,124.994278L154.441315,124.469185L154.372284,123.922165L154.291412,123.356186L154.199127,122.774307L154.096069,122.179611L153.982559,121.57515L153.725601,120.349045L153.431549,119.120415L153.360809,118.841721L153.294434,118.578423L153.233826,118.336479L153.180481,118.121895L153.136139,117.940712L153.101959,117.798889L153.079529,117.702446L153.073242,117.673119L153.070374,117.657379L153.086609,117.6119L153.141891,117.578133L153.229095,117.556343L153.340057,117.546661L153.46788,117.549385L153.604523,117.564659L153.742981,117.592796L153.875473,117.633965L154.02359,117.674294L154.195526,117.697044L154.369812,117.700569L154.525299,117.68325L154.861694,117.614685L153.99823,117.092628L153.630859,116.853912L153.283661,116.598541L153.128281,116.473007L152.990997,116.353416L152.87616,116.243149L152.787796,116.145531L152.559937,115.838142L152.450577,115.651474L152.391388,115.537758L152.326813,115.405815L152.25531,115.252159L152.175278,115.073372L152.084961,114.865929L151.982773,114.626389L151.866928,114.35125L151.736069,114.037086L151.588196,113.680367L151.421677,113.277641L151.127518,112.593697L150.806885,111.902458L150.461731,111.206932L150.094131,110.510109L149.706085,109.81501L149.2995,109.124603L148.876648,108.441917L148.439209,107.769905L147.98912,107.111557L147.528748,106.469933L147.060074,105.848L146.584763,105.248711L146.104919,104.675102L145.622635,104.130157L145.139862,103.616882L144.658569,103.138245L144.31929,102.824974L143.943665,102.49971L143.142426,101.857651L142.745865,101.563042L142.371201,101.300789L142.19664,101.18528L142.033203,101.082054L141.882599,100.992462L141.746429,100.917892L141.366882,100.745003L140.966873,100.606537L140.559982,100.504074L140.15921,100.439117L139.778381,100.413284L139.599228,100.415466L139.430008,100.428009L139.272583,100.451134L139.128281,100.48497L138.998795,100.529739L138.885956,100.585632L138.885956,100.58564zM141.454895,101.868889L141.851715,102.113808L142.260803,102.3964L142.679489,102.713966L143.105484,103.063835L143.536255,103.443352L143.969116,103.849785L144.402069,104.280533L144.832062,104.732834L145.257034,105.204063L145.674362,105.691551L146.081726,106.192612L146.476227,106.704514L146.855698,107.22464L147.217865,107.750328L147.559814,108.278824L147.879211,108.807503L148.078598,109.157333L148.277863,109.520363L148.667419,110.267685L149.031494,111.012718L149.199051,111.372948L149.354309,111.718857L149.494873,112.04583L149.619171,112.349327L149.725204,112.624763L149.810608,112.867508L149.873749,113.073036L149.912155,113.236694L149.921539,113.301399L149.924072,113.353935L149.919556,113.393723L149.907547,113.420166L149.866806,113.464035L149.827332,113.494209L149.793793,113.508034L149.770477,113.502754L149.727722,113.461403L149.672089,113.405983L149.604126,113.337234L149.525055,113.256042L149.435059,113.163086L149.335297,113.059219L149.108566,112.821785L148.850845,112.550026L148.568039,112.250221L148.265747,111.928604L147.950012,111.591484L147.301941,110.895882L146.981262,110.549934L146.670486,110.213562L146.375671,109.893089L146.102539,109.594742L145.857132,109.324852L145.746643,109.202522L145.645294,109.089668L145.355804,108.763176L145.059784,108.423088L144.457291,107.71373L143.856155,106.984703L143.274445,106.259102L142.996765,105.904831L142.730759,105.560089L142.478821,105.22776L142.243042,104.910721L142.025818,104.61187L141.829529,104.334099L141.656509,104.08033L141.508759,103.853394L141.249176,103.418129L141.02829,102.999519L140.933685,102.80024L140.850067,102.609673L140.778168,102.429352L140.718552,102.260803L140.671524,102.105522L140.637543,101.965027L140.617401,101.840874L140.611465,101.734566L140.620148,101.647614L140.644012,101.581535L140.683395,101.537849L140.739243,101.518112L140.77005,101.523392L140.823761,101.542618L140.896912,101.574249L140.986725,101.61689L141.090363,101.669121L141.204971,101.7295L141.454895,101.868889z"/>
        <path d="M154.111481,109.795021L154.06543,109.861618L154.023087,109.941048L153.950928,110.133102L153.895706,110.360268L153.858902,110.611763L153.841492,110.876686L153.844315,111.14415L153.868988,111.403381L153.916504,111.643486L153.94574,111.747017L153.984558,111.871468L154.031113,112.012123L154.084106,112.164314L154.201752,112.484276L154.323975,112.793587L154.453613,113.14698L154.566956,113.534752L154.658875,113.937645L154.72464,114.336449L154.759567,114.588158L154.795288,114.798027L154.835144,114.976944L154.883484,115.135963L154.943604,115.285973L155.02002,115.438057L155.115921,115.603081L155.235779,115.792107L155.432953,116.07386L155.642136,116.331001L155.861679,116.562035L156.089417,116.76535L156.323547,116.93943L156.562195,117.082748L156.803421,117.193733L157.045731,117.270912L157.198395,117.306923L157.324554,117.331459L157.431366,117.343987L157.526245,117.344025L157.616547,117.331055L157.709442,117.304527L157.812057,117.263954L157.932129,117.208839L158.103958,117.107811L158.252533,116.978973L158.378586,116.820229L158.483185,116.629539L158.56723,116.404831L158.631668,116.144051L158.677368,115.845139L158.705261,115.50602L158.709381,115.376495L158.708252,115.232933L158.692413,114.911446L158.659607,114.556847L158.612473,114.184471L158.553009,113.809593L158.483185,113.447479L158.405518,113.113487L158.322113,112.822868L158.29686,112.739914L158.281799,112.674568L158.278381,112.624443L158.287872,112.587151L158.31134,112.560249L158.349915,112.541328L158.405212,112.528008L158.478088,112.517845L158.582275,112.515739L158.683899,112.53067L158.771194,112.559898L158.832779,112.600754L158.847198,112.624146L158.867767,112.670647L158.894012,112.738976L158.925339,112.827835L158.961792,112.936058L159.002731,113.06234L159.047852,113.205444L159.096771,113.364113L159.14917,113.537109L159.204529,113.723167L159.322861,114.129471L159.4487,114.572975L159.578979,115.043709L159.710693,115.517525L159.840546,115.969925L159.965179,116.390266L160.08139,116.767906L160.135254,116.937386L160.185822,117.092201L160.232513,117.231033L160.274994,117.352501L160.312927,117.455345L160.345551,117.53817L160.372971,117.599709L160.394424,117.638588L160.493301,117.761551L160.5961,117.837196L160.713989,117.871117L160.858368,117.868919L160.987671,117.843132L161.083679,117.791328L161.11972,117.752037L161.147888,117.701851L161.168152,117.63929L161.181122,117.562943L161.186768,117.471329L161.184998,117.362953L161.176361,117.236412L161.160889,117.090218L161.138443,116.922867L161.109741,116.732994L161.074493,116.519051L161.032928,116.279579L160.975342,115.946358L160.928741,115.657669L160.894165,115.413528L160.872406,115.213943L160.865219,115.058998L160.873138,114.948692L160.897614,114.883064L160.939301,114.862129L160.999847,114.885941L161.080139,114.954544L161.181122,115.067924L161.304138,115.226143L161.450119,115.429222L161.620117,115.677193L161.714447,115.818008L161.815491,115.9701L161.922882,116.1334L162.03714,116.307961L162.192764,116.545708L162.335571,116.761833L162.466492,116.957436L162.586258,117.133629L162.695679,117.291496L162.795761,117.43219L162.887299,117.556793L162.971313,117.666451L163.048431,117.762238L163.119736,117.845291L163.248123,117.977623L163.363312,118.07235L163.472488,118.138382L163.63942,118.205856L163.82132,118.250488L164.011139,118.27269L164.202118,118.272926L164.386581,118.251511L164.558044,118.208946L164.708801,118.145561L164.831863,118.061768L164.912598,117.972763L164.987946,117.854652L165.057236,117.711868L165.119949,117.54882L165.175659,117.369949L165.223602,117.179634L165.29425,116.782433L165.327011,116.392479L165.327805,116.211273L165.317474,116.045158L165.29512,115.898476L165.260864,115.775757L165.213501,115.681328L165.152405,115.619583L165.056763,115.575554L164.961456,115.569328L164.865326,115.602341L164.766693,115.675964L164.664276,115.791649L164.556641,115.950775L164.442139,116.154747L164.319305,116.404945L164.020386,117.046844L163.782318,116.811783L163.7276,116.751991L163.662109,116.669525L163.585114,116.56385L163.496826,116.434578L163.396637,116.281197L163.284241,116.103233L163.159653,115.900284L163.022308,115.671837L162.872147,115.417458L162.708832,115.136673L162.531891,114.829002L162.341248,114.494011L162.136719,114.131248L161.917847,113.740211L161.684433,113.320473L161.436127,112.871544L161.210266,112.465584L161.003387,112.101585L160.813538,111.777504L160.638855,111.491249L160.477386,111.240761L160.327301,111.023979L160.186798,110.838844L160.053741,110.683273L159.926453,110.555199L159.802826,110.452553L159.681046,110.373283L159.559387,110.315331L159.435791,110.276604L159.30838,110.255058L159.175095,110.248589L159.034363,110.25518L158.879822,110.275925L158.760162,110.313301L158.672363,110.374413L158.613815,110.466408L158.581116,110.596336L158.573685,110.677773L158.571899,110.771393L158.574982,110.878052L158.582779,110.99865L158.595047,111.134094L158.611115,111.285225L158.689941,111.982109L158.3591,111.921333L158.262085,111.897087L158.169373,111.858475L158.076401,111.801239L157.978302,111.721054L157.870392,111.613625L157.748093,111.474655L157.606567,111.299858L157.441223,111.08493L157.258575,110.849663L157.082214,110.63517L156.911209,110.44091L156.744751,110.266304L156.581421,110.110741L156.420563,109.973679L156.261139,109.854523L156.102051,109.752693L155.942581,109.667641L155.781357,109.598732L155.617767,109.545448L155.450714,109.50721L155.278961,109.48336L155.101883,109.473412L154.918121,109.476738L154.727234,109.492813L154.525391,109.528198L154.362778,109.586693L154.228516,109.673805L154.111481,109.795006L154.111481,109.795021zM156.035248,110.576775L156.339996,110.949516L156.48053,111.139847L156.606903,111.323715L156.714935,111.494385L156.800003,111.645065L156.857635,111.768959L156.883392,111.859291L156.869766,111.929375L156.819916,112.007896L156.741882,112.085266L156.643097,112.151817L156.579712,112.187004L156.497528,112.2332L156.400177,112.288429L156.291473,112.350822L155.807419,112.631798L155.229294,112.971214L155.094482,112.673592L155.023468,112.501595L154.960312,112.318275L154.857483,111.928261L154.787674,111.525154L154.751556,111.130363L154.746719,110.942856L154.750549,110.765457L154.76329,110.600883L154.785202,110.451836L154.816406,110.320992L154.857071,110.211052L154.907013,110.124657L154.966812,110.064545L155.05777,110.025055L155.168976,110.01899L155.296326,110.044403L155.435822,110.099388L155.583344,110.182014L155.735153,110.290413L155.887115,110.422646L156.035248,110.576775zM157.44603,112.910713L157.484085,113.002838L157.522034,113.109917L157.596313,113.361595L157.666107,113.651016L157.728683,113.963432L157.781464,114.284126L157.821808,114.598396L157.847015,114.891495L157.854065,115.148643L157.844818,115.451729L157.824768,115.720985L157.794006,115.956276L157.752869,116.157448L157.70163,116.324379L157.64032,116.456886L157.569473,116.554871L157.489258,116.618187L157.399826,116.646667L157.301605,116.640205L157.194763,116.598656L157.079681,116.521881L156.956299,116.409706L156.825409,116.262062L156.686752,116.078743L156.540771,115.859619L156.452209,115.716225L156.373154,115.581642L156.242554,115.335052L156.147614,115.112198L156.086395,114.905411L156.057251,114.707001L156.05838,114.509285L156.088257,114.304619L156.144974,114.085312L156.21051,113.889267L156.282379,113.714317L156.362213,113.557503L156.452591,113.415985L156.555435,113.28685L156.672516,113.167152L156.806274,113.054054L156.958618,112.944611L157.076965,112.867134L157.170273,112.811142L157.243378,112.776421L157.299805,112.762589L157.344147,112.769409L157.380371,112.796547L157.412872,112.843735L157.44603,112.910713z"/>
        <path d="M166.11969,111.519981L166.008316,111.676537L165.919571,111.846275L165.851563,112.040062L165.802399,112.268707L165.784454,112.399513L165.770721,112.543137L165.76062,112.700867L165.754456,112.874153L165.751663,113.064308L165.752014,113.272652L165.755554,113.500626L165.761719,113.749504L165.772858,114.004448L165.791428,114.27578L165.848892,114.855057L165.929459,115.462273L166.028992,116.072433L166.1427,116.660454L166.203644,116.938354L166.266449,117.201332L166.330627,117.446259L166.395584,117.670013L166.460846,117.869461L166.525711,118.041443L166.618378,118.242119L166.716705,118.411324L166.817261,118.546227L166.916855,118.644081L167.011734,118.702011L167.098328,118.717216L167.173187,118.686867L167.205078,118.653725L167.232681,118.608131L167.238617,118.583885L167.242126,118.540993L167.243347,118.480476L167.24263,118.40345L167.239441,118.310867L167.234283,118.203819L167.218063,117.950546L167.194641,117.651955L167.164307,117.316414L167.127991,116.952324L167.086136,116.568016L167.032547,116.075859L166.986908,115.608276L166.948578,115.165909L166.917847,114.749542L166.894745,114.359917L166.879395,113.997787L166.87146,113.663841L166.871094,113.358826L166.878143,113.083473L166.892944,112.83857L166.915222,112.624809L166.945038,112.442932L166.982239,112.293648L167.02713,112.177757L167.079483,112.095955L167.139297,112.048965L167.199402,112.041908L167.268768,112.071053L167.347153,112.135323L167.433563,112.233566L167.527725,112.3647L167.629028,112.527611L167.737061,112.721237L167.850983,112.944397L167.970612,113.196075L168.095001,113.475075L168.223969,113.780357L168.356659,114.110771L168.492966,114.465279L168.631836,114.842697L168.773148,115.241997L168.916046,115.661995L169.041382,116.029686L169.161102,116.366196L169.273819,116.668343L169.378403,116.933006L169.47345,117.156998L169.557816,117.337181L169.629974,117.47039L169.661163,117.518394L169.68895,117.553482L169.768509,117.626968L169.86467,117.691574L169.974213,117.746361L170.094482,117.790459L170.222366,117.82296L170.355072,117.842987L170.489807,117.849648L170.623474,117.842026L170.646545,117.832764L170.668671,117.810394L170.689911,117.775063L170.710175,117.726852L170.748093,117.592354L170.781784,117.407707L170.811386,117.173836L170.836731,116.89167L170.857727,116.562103L170.874207,116.186028L170.887436,115.858139L170.902557,115.572075L170.920242,115.322151L170.941116,115.102669L170.965897,114.907898L170.995163,114.732155L171.06958,114.414848L171.105423,114.328941L171.152985,114.281639L171.210541,114.270912L171.277466,114.294899L171.352203,114.351601L171.433929,114.43914L171.521057,114.555519L171.612869,114.698845L171.707977,114.86718L171.805115,115.058556L171.903244,115.271034L172.001404,115.502731L172.098175,115.751671L172.192383,116.0159L172.368729,116.582558L172.443146,116.884056L172.507172,117.222328L172.560394,117.593437L172.602417,117.993416L172.63266,118.418297L172.651443,118.864243L172.657761,119.327194L172.651657,119.803307L172.652328,120.064629L172.668076,120.309387L172.69809,120.535072L172.74176,120.739189L172.798431,120.919281L172.867401,121.072823L172.948242,121.197372L173.040253,121.290436L173.148926,121.348358L173.295471,121.38855L173.465515,121.411247L173.64502,121.41674L173.819031,121.40519L173.973602,121.376907L174.094391,121.332123L174.137512,121.303604L174.166779,121.271049L174.184158,121.225021L174.198547,121.149055L174.209747,121.047173L174.217529,120.923401L174.221985,120.781799L174.222382,120.626297L174.211731,120.289955L174.203583,119.935181L174.220352,119.606949L174.262848,119.30246L174.33194,119.018929L174.428375,118.753563L174.553162,118.503578L174.707123,118.266197L174.8909,118.038597L175.034439,117.885605L175.196671,117.726448L175.533203,117.425911L175.685898,117.302681L175.81369,117.209572L175.865173,117.177193L175.906021,117.155708L175.935394,117.146309L175.951706,117.150108L175.961166,117.168152L175.977234,117.207169L175.998825,117.264687L176.02536,117.338326L176.089478,117.524109L176.162628,117.745003L176.314728,118.151024L176.500244,118.542183L176.713318,118.910362L176.94754,119.247406L177.196655,119.545143L177.324905,119.67672L177.454666,119.795448L177.58493,119.900246L177.715149,119.990143L177.844437,120.064079L177.971985,120.121063L178.146149,120.167336L178.349869,120.188667L178.572632,120.186745L178.803223,120.163124L179.03093,120.119453L179.244568,120.057297L179.433411,119.978294L179.586441,119.884041L179.725891,119.766006L179.835175,119.647408L179.916183,119.522781L179.970428,119.386612L179.999268,119.233345L180.004333,119.05751L179.987366,118.853592L179.949936,118.616081L179.86853,118.282814L179.748688,117.955017L179.590302,117.63269L179.393433,117.315842L179.157898,117.004433L178.883774,116.698471L178.571091,116.397957L178.219833,116.102905L178.038666,115.956642L177.877625,115.81987L177.737869,115.693634L177.620361,115.578911L177.525726,115.476646L177.455429,115.387924L177.410126,115.313683L177.390976,115.254944L177.389526,115.188202L177.398575,115.111206L177.444809,114.933014L177.522903,114.733528L177.62529,114.525742L177.74527,114.32283L177.875244,114.137817L178.008881,113.983871L178.138519,113.874031L178.267548,113.800423L178.405411,113.745415L178.552109,113.708984L178.70755,113.691086L178.871552,113.691719L179.044312,113.710884L179.225494,113.748512L179.415161,113.804604L179.613037,113.879112L179.819641,113.972099L180.034302,114.083458L180.257187,114.213188L180.488144,114.361275L180.727585,114.527733L180.974594,114.712463L181.229797,114.915504L182.083496,115.614571L182.264099,116.7211L182.3479,117.166328L182.456314,117.635735L182.582596,118.109138L182.720551,118.566406L182.863556,118.987373L182.934998,119.17794L183.00531,119.351875L183.073547,119.506638L183.139175,119.639748L183.201233,119.74865L183.25885,119.830841L183.358826,119.927856L183.477646,119.982422L183.550522,119.995445L183.635529,119.999802L183.73526,119.996155L183.85231,119.985184L184.026535,119.961533L184.154953,119.925758L184.203049,119.898697L184.240707,119.862968L184.268402,119.81675L184.286743,119.758202L184.295959,119.685425L184.296341,119.596565L184.288467,119.489746L184.272614,119.363121L184.249283,119.214828L184.218689,119.042976L184.181198,118.845688L184.137634,118.621178L184.096252,118.40358L184.051407,118.15464L184.004105,117.883018L183.956207,117.597534L183.863846,117.019791L183.822357,116.745026L183.785873,116.491295L183.759216,116.298569L183.736038,116.127205L183.716843,115.975502L183.701141,115.841621L183.689285,115.723831L183.681046,115.620323L183.676437,115.44915L183.68718,115.313896L183.713898,115.200417L183.756622,115.09449L183.815735,114.981941L184.008148,114.637665L184.431473,114.813187L184.60405,114.898354L184.802704,115.020088L185.023621,115.174423L185.262466,115.357323L185.514999,115.564766L185.77742,115.792831L186.315186,116.294662L186.842575,116.830795L187.092255,117.101738L187.327042,117.369263L187.542877,117.629379L187.735657,117.878082L187.901306,118.111389L188.035629,118.325256L188.05925,118.371956L188.084946,118.434212L188.112625,118.511696L188.142334,118.604164L188.174133,118.711319L188.207626,118.832817L188.243027,118.968422L188.279846,119.117752L188.318634,119.280602L188.358795,119.456612L188.443634,119.847008L188.533661,120.28653L188.628815,120.772873L188.917984,122.237473L189.225418,123.705261L189.547806,125.163582L189.881149,126.599709L190.222031,128.000977L190.39415,128.684601L190.566727,129.354706L190.739395,130.009766L190.911652,130.648163L191.082886,131.268326L191.253113,131.868698L191.421326,132.447632L191.58725,133.003571L191.750717,133.534958L191.910889,134.040161L192.067505,134.517609L192.220322,134.965759L192.36821,135.382935L192.511459,135.767624L192.649139,136.118195L192.781097,136.433136L192.906601,136.710754L193.025131,136.949524L193.136749,137.147858L193.240646,137.304184L193.336243,137.41687L193.423401,137.484375L193.53157,137.532364L193.643753,137.56424L193.754715,137.580292L193.859436,137.580902L193.952637,137.566437L194.029449,137.537231L194.084885,137.493652L194.113495,137.436035L194.112823,137.391632L194.10051,137.312531L194.077637,137.203156L194.045242,137.067932L194.004852,136.911316L193.95697,136.737656L193.844284,136.357086L193.620712,135.620483L193.401047,134.864838L193.182724,134.080902L192.963364,133.259308L192.852448,132.831512L192.740372,132.390839L192.626801,131.936096L192.511368,131.466125L192.39386,130.979797L192.27417,130.475952L192.15155,129.9534L192.025879,129.41098L191.834579,128.572845L191.651627,127.759369L191.47731,126.970299L191.311661,126.205414L191.154465,125.464447L191.005722,124.747147L190.865402,124.053253L190.733353,123.38253L190.609787,122.734734L190.494568,122.109627L190.387619,121.50692L190.288971,120.926407L190.198547,120.367828L190.116226,119.830902L190.042328,119.315453L189.976471,118.821167L189.918732,118.347816L189.869095,117.895157L189.827362,117.462921L189.793839,117.050896L189.768295,116.658821L189.750473,116.286392L189.740707,115.933449L189.739044,115.599709L189.745087,115.284912L189.758881,114.9888L189.780624,114.711159L189.809921,114.451691L189.847229,114.21022L189.892044,113.986427L189.944534,113.780098L190.00473,113.590981L190.087463,113.378532L190.17627,113.191483L190.271973,113.029778L190.374863,112.893257L190.485733,112.781845L190.605438,112.69548L190.7341,112.63398L190.872665,112.597305L191.021729,112.585342L191.181671,112.597954L191.353302,112.635071L191.537201,112.696579L191.73378,112.782356L191.943954,112.892349L192.168198,113.026413L192.407166,113.184471L192.671051,113.377975L192.92337,113.587769L193.16861,113.81884L193.411362,114.076157L193.655716,114.36467L193.906403,114.689384L194.167999,115.055283L194.444366,115.467255L194.548141,115.625137L194.641525,115.765968L194.7258,115.890709L194.801666,116.000237L194.869934,116.095467L194.931229,116.177254L195.037125,116.30426L195.125916,116.388466L195.203873,116.437019L195.278198,116.45723L195.355057,116.45623L195.426605,116.445938L195.481628,116.431808L195.521484,116.411575L195.547348,116.382957L195.56073,116.343719L195.562836,116.29155L195.555038,116.22422L195.538757,116.139473L195.510788,116.029297L195.472305,115.906181L195.367142,115.628502L195.231201,115.321434L195.072128,114.999931L194.897598,114.678955L194.7155,114.373482L194.533508,114.09848L194.445084,113.977119L194.35965,113.86898L194.142609,113.621376L193.914276,113.387283L193.675934,113.167328L193.428421,112.962044L193.173386,112.772072L192.911804,112.598L192.644913,112.440414L192.374252,112.29995L192.100677,112.177162L191.825653,112.072678L191.550354,111.987076L191.276108,111.92099L191.003815,111.874962L190.735367,111.849655L190.471329,111.845627L190.213364,111.863487L189.911026,111.910263L189.634949,111.980011L189.383789,112.074417L189.157028,112.195305L188.953735,112.344421L188.773209,112.523582L188.614014,112.734474L188.475998,112.978958L188.357697,113.258713L188.258713,113.575584L188.177841,113.931297L188.11441,114.327644L188.067474,114.766396L188.036224,115.249313L188.019653,115.778152L188.017151,116.354736L188.017166,116.534203L188.014359,116.673653L188.007431,116.775749L187.996033,116.843323L187.979538,116.879158L187.956955,116.885963L187.92749,116.866524L187.890457,116.823586L187.817291,116.731636L187.728012,116.625801L187.624466,116.50808L187.508606,116.380463L187.248062,116.103577L186.962646,115.811264L186.66806,115.519562L186.380447,115.244522L186.115494,115.002182L185.996475,114.898285L185.889236,114.808601L185.590393,114.581421L185.295807,114.390129L185.00264,114.233696L184.707626,114.111031L184.408325,114.021126L184.101334,113.962891L183.784088,113.935303L183.453293,113.937286L183.334854,113.943268L183.229797,113.949356L183.054443,113.963585L182.917557,113.983635L182.808975,114.013115L182.718506,114.05558L182.63652,114.114716L182.552811,114.194122L182.457352,114.297394L182.16423,114.623375L181.357208,113.994843L181.160583,113.845413L180.969818,113.708595L180.603256,113.471634L180.250153,113.281281L179.903137,113.134903L179.554871,113.029808L179.198364,112.963432L178.825592,112.932991L178.429733,112.935913L178.116089,112.960075L177.824326,113.003174L177.554169,113.06559L177.305267,113.147713L177.077179,113.249901L176.86969,113.372566L176.682373,113.516083L176.514999,113.68084L176.367126,113.86721L176.238556,114.0756L176.128586,114.306328L176.037247,114.559837L175.964005,114.836479L175.908752,115.136673L175.870789,115.460754L175.849915,115.80912L175.845337,115.935555L175.840729,116.04705L175.835693,116.144562L175.82991,116.229095L175.814285,116.363098L175.791046,116.456955L175.757538,116.5186L175.710571,116.555855L175.647461,116.576645L175.565552,116.588875L175.512512,116.598053L175.44278,116.614952L175.358856,116.638824L175.262787,116.668884L175.042068,116.744286L174.797119,116.834755L174.301849,117.035599L174.084885,117.133247L173.99118,117.178566L173.910309,117.220535L173.840378,117.250168L173.775772,117.245468L173.742706,117.224998L173.707611,117.189644L173.668915,117.137238L173.625885,117.065742L173.577057,116.972992L173.521454,116.856926L173.457764,116.715401L173.38472,116.546295L173.301392,116.347549L173.20639,116.117012L173.098587,115.852592L172.977036,115.552193L172.903198,115.37133L172.833847,115.204247L172.768295,115.050255L172.706604,114.90876L172.592468,114.660446L172.488892,114.454124L172.392624,114.284462L172.301117,114.146255L172.211578,114.034233L172.121155,113.943176L171.960251,113.809853L171.798676,113.69796L171.637604,113.607437L171.477921,113.538124L171.320129,113.489845L171.165482,113.462532L171.01442,113.455956L170.867859,113.470016L170.726807,113.504578L170.59201,113.559509L170.464111,113.634628L170.344162,113.729843L170.233124,113.845009L170.131531,113.979965L170.040131,114.134529L169.96022,114.308662L169.897491,114.453262L169.836945,114.57267L169.785919,114.654518L169.766129,114.677498L169.751251,114.686455L169.730347,114.667183L169.693405,114.60936L169.642517,114.51709L169.579712,114.394493L169.507095,114.245682L169.426682,114.074776L169.340546,113.885872L169.250732,113.683121L169.10144,113.350929L168.955643,113.046181L168.812408,112.768036L168.671051,112.515678L168.530609,112.288269L168.390411,112.084999L168.249649,111.905052L168.107376,111.747574L167.962906,111.611763L167.81546,111.496796L167.664154,111.40184L167.50824,111.326088L167.346771,111.268654L167.179276,111.228813L167.004471,111.205643L166.821899,111.198395L166.687943,111.200813L166.578003,111.209084L166.486618,111.225685L166.40834,111.253052L166.337967,111.293701L166.27005,111.35009L166.198975,111.42466L166.119705,111.519951L166.11969,111.519981zM178.275467,117.738838L178.368225,117.939781L178.448669,118.156647L178.514801,118.377998L178.564178,118.592354L178.594757,118.788269L178.604034,118.954231L178.600067,119.0224L178.590088,119.078819L178.573563,119.121986L178.550507,119.150543L178.506531,119.162621L178.445282,119.149811L178.374756,119.115021L178.303345,119.061234L178.165924,118.924866L178.043793,118.775826L177.936096,118.611961L177.841644,118.431084L177.75946,118.231018L177.688812,118.009636L177.62851,117.764732L177.577301,117.49411L177.449646,116.719551L177.735107,116.982994L177.797516,117.045937L177.865936,117.124107L178.011536,117.313683L178.153992,117.526863L178.275467,117.738838z"/>
        <path d="M196.70018,116.024429L196.541046,116.139015L196.394958,116.263779L196.261627,116.398872L196.141174,116.544479L196.033447,116.700798L195.938248,116.867973L195.855728,117.046219L195.78569,117.235718L195.728378,117.436661L195.683136,117.649147L195.650558,117.873474L195.630234,118.109764L195.621994,118.358177L195.625961,118.618912L195.642242,118.892189L195.670395,119.178139L195.722305,119.540932L195.791245,119.888573L195.878555,120.223335L195.98465,120.547386L196.110199,120.862938L196.256241,121.172218L196.423767,121.477486L196.613159,121.780876L196.717468,121.933563L196.819382,122.072716L197.019592,122.312149L197.219284,122.502571L197.424606,122.647476L197.641251,122.750259L197.875214,122.814407L198.132401,122.843384L198.418503,122.840569L198.676666,122.814186L198.905716,122.766006L199.107147,122.695183L199.282394,122.600838L199.432404,122.482048L199.559021,122.338005L199.663239,122.167763L199.74649,121.970459L199.785522,121.814499L199.799622,121.644394L199.790024,121.461853L199.757706,121.268509L199.703354,121.065979L199.627899,120.855911L199.532455,120.639946L199.417816,120.419746L199.285126,120.196953L199.134781,119.973122L198.968124,119.749992L198.786011,119.52916L198.589218,119.312263L198.378769,119.100945L198.155563,118.896851L197.920334,118.701584L197.763046,118.576294L197.625259,118.463638L197.506485,118.361809L197.405731,118.268936L197.322678,118.183197L197.256348,118.102745L197.206497,118.02578L197.171936,117.950386L197.152527,117.87484L197.147339,117.797218L197.155869,117.715721L197.177444,117.628525L197.211121,117.533745L197.256531,117.429573L197.313126,117.314201L197.379868,117.185745L197.46167,117.041527L197.546967,116.911644L197.636002,116.795944L197.729218,116.694283L197.827164,116.606583L197.93013,116.532654L198.038391,116.472374L198.152786,116.425667L198.273056,116.392281L198.400055,116.372169L198.534012,116.365196L198.6754,116.371193L198.824509,116.390038L198.981979,116.421616L199.147751,116.465752L199.322601,116.522339L199.440399,116.569527L199.576538,116.634438L199.727982,116.714989L199.891968,116.809128L200.245987,117.029884L200.614578,117.280014L200.974152,117.5429L201.301392,117.801933L201.445129,117.924759L201.572144,118.040421L201.679153,118.146774L201.763092,118.241753L201.785919,118.276924L201.813507,118.331909L201.845856,118.405922L201.882446,118.49807L201.923248,118.607559L201.967728,118.733498L202.015747,118.875084L202.067154,119.031509L202.121552,119.201881L202.178772,119.385399L202.300125,119.788429L202.429153,120.23391L202.563629,120.715111L202.690536,121.172813L202.814499,121.611862L202.932404,122.021797L203.041016,122.392113L203.090958,122.559166L203.13736,122.712379L203.179871,122.850441L203.218323,122.972092L203.25206,123.075981L203.280518,123.160767L203.303879,123.22522L203.321396,123.267998L203.381607,123.381042L203.451019,123.477554L203.529602,123.557426L203.61676,123.620491L203.712601,123.666656L203.81665,123.69574L203.928772,123.707634L204.048859,123.702232L204.112259,123.689171L204.158234,123.655052L204.187073,123.582672L204.195084,123.526756L204.199097,123.454842L204.198868,123.364754L204.19487,123.25441L204.186768,123.121597L204.174728,122.96418L204.158829,122.780022L204.139236,122.566994L204.115753,122.322914L204.088318,122.045601L203.927277,120.41185L204.93364,121.972717L205.140564,122.290169L205.342484,122.593811L205.534302,122.876457L205.71109,123.130959L205.867889,123.350136L205.936996,123.444191L205.999374,123.526756L206.054016,123.59687L206.100754,123.653702L206.138504,123.696281L206.166901,123.72377L206.223236,123.764809L206.296539,123.808594L206.482239,123.899017L206.69899,123.984192L206.922028,124.053314L206.973083,124.065331L207.047089,124.08062L207.142578,124.098961L207.257599,124.120049L207.391113,124.143715L207.541397,124.169716L207.70639,124.197716L207.885147,124.227577L208.276917,124.291771L208.703522,124.360283L209.611359,124.502548L210.067337,124.572388L210.50766,124.638748L210.919998,124.69973L211.291412,124.753319L211.457886,124.776749L211.60936,124.7976L211.744247,124.81562L211.86113,124.830582L211.958298,124.842247L212.034302,124.85038L212.087341,124.854698L212.116074,124.854996L212.133316,124.864952L212.149872,124.895477L212.174103,124.999405L212.19487,125.067688L212.236404,125.122604L212.292603,125.16275L212.357391,125.186752L212.424942,125.193253L212.489456,125.180908L212.544952,125.148354L212.58551,125.094208L212.591049,125.038765L212.60376,125.018364L212.647766,125.006088L212.686935,125.003716L212.740936,125.004288L212.811584,125.008049L212.90152,125.015343L213.013092,125.026489L213.148117,125.041725L213.30928,125.061378L213.498642,125.085747L213.718689,125.11515L213.97168,125.149887L214.259689,125.190224L214.585098,125.236473L214.950256,125.288948L215.357285,125.347923L215.808777,125.41375L216.306732,125.486671L216.853516,125.567009L217.145935,125.610062L217.451309,125.655052L217.770187,125.70208L218.102661,125.751137L218.44902,125.802269L218.809662,125.85553L219.184814,125.91095L219.574524,125.968529L219.979538,126.028366L220.399872,126.090477L220.835663,126.154854L221.28743,126.221588L221.755432,126.290718L222.239944,126.362251L223.040558,126.480423L223.870789,126.602913L224.723938,126.728752L225.593857,126.857033L227.357407,127.116966L229.108917,127.375L229.964066,127.500938L230.796417,127.623482L231.599976,127.741737L232.367905,127.854736L233.093689,127.961479L233.438904,128.012238L233.771149,128.061066L234.089371,128.107849L234.393219,128.152466L234.681717,128.194855L234.953751,128.234772L235.50621,128.316406L236.104614,128.405777L236.743362,128.502045L237.416656,128.60434L238.118652,128.71167L238.843964,128.823273L240.340622,129.05542L241.861389,129.293762L243.359955,129.531036L244.086761,129.647079L244.791077,129.760223L245.466812,129.869507L246.108719,129.974121L246.433609,130.027283L246.785431,130.084885L247.162582,130.146622L247.564163,130.212357L247.989014,130.281921L248.435532,130.355011L248.903229,130.43158L249.390762,130.511383L249.896606,130.594208L250.419937,130.679871L250.959732,130.76825L251.514572,130.8591L252.083359,130.952209L252.664963,131.047455L253.862274,131.243469L255.097336,131.445694L256.360596,131.652542L258.936035,132.074249L261.514832,132.496521L262.782562,132.704102L264.02359,132.907349L265.234863,133.105652L266.415222,133.298859L267.558319,133.485916L268.658203,133.665802L269.189941,133.752777L269.70816,133.837524L270.21283,133.920013L270.702515,134.000031L271.176605,134.077515L271.634521,134.152313L272.075317,134.224304L272.498352,134.293396L272.902466,134.359344L273.287476,134.42218L273.651978,134.481659L273.995605,134.537689L274.317413,134.590149L274.616608,134.638885L274.8927,134.683838L275.14447,134.724792L275.371429,134.761688L275.572632,134.794373L275.747345,134.822693L275.894897,134.846558L276.014465,134.865845L276.105286,134.880432L276.166351,134.890106L276.197083,134.894836L276.293152,134.913849L276.376038,134.949341L276.454285,135.014465L276.536682,135.122375L276.582031,135.196472L276.631561,135.286194L276.686401,135.393188L276.74762,135.519073L276.816345,135.665527L276.893341,135.834137L276.980133,136.026611L277.077423,136.244537L277.195343,136.507813L277.307129,136.754791L277.410156,136.980011L277.501892,137.177917L277.579803,137.343079L277.641174,137.469894L277.683655,137.552948L277.697021,137.576355L277.70459,137.5867L277.720703,137.586136L277.764221,137.580887L277.834473,137.571075L277.930481,137.556763L278.051727,137.538116L278.197754,137.515289L278.367554,137.488281L278.560547,137.457306L278.77594,137.422394L279.013367,137.383728L279.271912,137.341431L279.550842,137.295532L279.84967,137.246246L280.167633,137.193634L280.503723,137.137756L280.857819,137.078842L281.228943,137.016937L281.616455,136.952179L282.019531,136.884644L282.437683,136.814484L282.870178,136.741791L283.316376,136.666718L284.246521,136.509735L285.223389,136.344543L286.240784,136.171936L287.293762,135.99292L288.376526,135.80835L289.46051,135.623413L290.517151,135.443359L291.541077,135.269135L292.526062,135.101624L293.467041,134.941849L293.919128,134.865128L294.358032,134.79068L294.783173,134.718658L295.193909,134.649139L295.589081,134.582214L295.968597,134.518097L296.331329,134.456848L296.676636,134.39856L297.004028,134.343399L297.312683,134.291473L297.601776,134.242844L297.870789,134.197723L298.118958,134.156158L298.34552,134.118301L298.549927,134.084259L298.731293,134.054138L298.889038,134.028107L299.022583,134.006226L299.130737,133.988617L299.213409,133.975433L299.269592,133.966797L299.298706,133.962799L299.396362,133.937439L299.511841,133.873871L299.579834,133.824188L299.656738,133.760712L299.743652,133.682037L299.842194,133.5867L299.953796,133.473328L300.079956,133.3405L300.221802,133.186768L300.381256,133.010803L300.559265,132.811096L300.757355,132.586273L300.977112,132.3349L301.219849,132.055573L301.546753,131.677521L301.8526,131.322205L302.130646,130.99765L302.256866,130.849335L302.373688,130.711731L302.480072,130.585739L302.575439,130.472458L302.658569,130.372803L302.728943,130.287781L302.785583,130.218445L302.827515,130.16568L302.853973,130.130585L302.864319,130.114105L302.851013,130.108398L302.809814,130.097473L302.741547,130.081512L302.647522,130.06073L302.528046,130.035217L302.384277,130.005219L302.217285,129.970856L302.027649,129.932312L301.816528,129.889771L301.584717,129.843384L301.332947,129.793335L301.062347,129.739777L300.773743,129.682892L300.467957,129.622864L300.145996,129.559845L299.808655,129.493988L299.456787,129.425507L299.091431,129.354523L298.323486,129.205811L297.511963,129.049194L296.664154,128.886078L295.786865,128.717773L294.887543,128.545685L293.05127,128.195526L291.211884,127.846428L290.308838,127.675644L289.426758,127.509239L288.572266,127.348511L287.75293,127.194862L286.975647,127.049629L286.605103,126.980583L286.24762,126.914162L285.904358,126.850517L285.576172,126.789848L285.263733,126.732269L284.968018,126.677994L284.690033,126.627174L284.430603,126.580009L284.190735,126.536629L283.971222,126.497246L283.772705,126.46196L283.596497,126.431015L283.44342,126.404579L283.314209,126.382767L283.209686,126.365761L283.13092,126.353752L283.078796,126.346924L283.054016,126.34539L283.009674,126.360565L282.97522,126.391884L282.95459,126.434837L282.95105,126.484856L282.961914,126.500732L282.991089,126.521385L283.037506,126.546486L283.100525,126.575783L283.179199,126.608963L283.272827,126.645744L283.380493,126.685829L283.501282,126.728928L283.77948,126.823059L284.100372,126.925766L284.457825,127.034775L284.844971,127.147758L285.062683,127.209358L285.322449,127.281776L285.621399,127.364258L285.956421,127.456017L286.324829,127.556313L286.723663,127.664391L287.150208,127.779488L287.601624,127.900894L288.074707,128.027771L288.567017,128.159439L289.07547,128.295105L289.597382,128.434052L290.669312,128.718597L291.760559,129.007141L292.8479,129.29361L293.908325,129.57193L294.421265,129.706146L294.919189,129.83609L295.398743,129.960968L295.857483,130.080048L296.29245,130.192581L296.700562,130.297791L297.079102,130.394897L297.425293,130.483246L297.736206,130.561966L298.008728,130.630341L298.24054,130.687653L298.428284,130.733109L298.655396,130.787567L298.868774,130.839371L299.063538,130.88736L299.235107,130.930328L299.378723,130.967072L299.48938,130.996368L299.562439,131.016998L299.593079,131.027756L299.593872,131.03949L299.582336,131.06369L299.559631,131.098907L299.526917,131.143707L299.436951,131.256653L299.322144,131.391235L299.057495,131.680298L298.927307,131.812286L298.811646,131.920929L298.776367,131.940887L298.711914,131.963623L298.617126,131.989319L298.490845,132.018112L298.332062,132.050232L298.139465,132.085831L297.911987,132.125092L297.648499,132.168213L297.348022,132.215363L297.009064,132.266724L296.630676,132.322479L296.211975,132.382828L295.751465,132.447906L295.248047,132.517944L294.70105,132.593109L294.108643,132.673553L293.618835,132.740082L293.090576,132.812439L292.528748,132.889862L291.938538,132.97171L291.324799,133.057251L290.692352,133.145782L289.391602,133.329041L288.075867,133.515869L286.785095,133.700684L286.161285,133.790558L285.558716,133.877838L284.982147,133.961792L284.436554,134.041748L284.045868,134.099075L283.674805,134.153427L283.322632,134.204803L282.989136,134.253326L282.673553,134.299011L282.375427,134.341919L282.094421,134.382111L281.830017,134.419647L281.581665,134.454575L281.34906,134.486984L281.131592,134.516907L280.928711,134.544388L280.740051,134.569519L280.565002,134.592316L280.254333,134.631256L279.992737,134.661621L279.77655,134.68396L279.601654,134.698669L279.464355,134.706207L279.361023,134.707062L279.287537,134.701706L279.240356,134.690613L279.215393,134.674194L279.188629,134.63147L279.148712,134.555969L279.098022,134.451904L279.038239,134.323486L278.971191,134.174866L278.899078,134.010284L278.746887,133.65004L278.59671,133.294556L278.526947,133.13559L278.463074,132.9944L278.406921,132.874908L278.360413,132.781128L278.325195,132.716949L278.303192,132.686371L278.267639,132.672668L278.231079,132.662933L278.181854,132.651215L278.119019,132.63736L278.042053,132.621277L277.950989,132.602997L277.844971,132.582336L277.723846,132.559296L277.586731,132.533691L277.433563,132.505524L277.263641,132.474701L277.076477,132.441071L276.871826,132.404663L276.648987,132.365295L276.407715,132.322968L276.147491,132.277588L275.867676,132.229004L275.568115,132.177216L275.247925,132.122101L274.907104,132.063583L274.544983,132.001617L274.160919,131.936035L273.754761,131.866867L273.325867,131.793945L272.873718,131.717224L272.398071,131.636642L271.898254,131.552063L271.374023,131.46347L270.824829,131.370758L270.249939,131.273804L269.64917,131.172577L269.354065,131.123215L269.019318,131.067871L268.647278,131.006912L268.24054,130.940735L267.801453,130.86972L267.332642,130.79425L266.836609,130.714737L266.316132,130.631622L265.773071,130.545166L265.210388,130.455872L264.630554,130.364105L264.036163,130.270264L262.813019,130.07782L261.561218,129.881744L259.051422,129.491135L257.833527,129.302856L257.242462,129.211823L256.667053,129.123444L256.109283,129.038055L255.571991,128.956055L255.057709,128.877838L254.568604,128.803802L254.107376,128.734314L253.676682,128.6698L253.278656,128.610611L252.916168,128.55719L251.983658,128.420654L251.090729,128.290436L250.234161,128.166077L249.411682,128.047302L248.620255,127.933762L247.857285,127.825104L247.119873,127.721001L246.40538,127.621109L245.711044,127.525093L245.034119,127.432617L243.721451,127.256912L242.445023,127.09124L241.183533,126.932999L239.914368,126.77935L238.615891,126.62767L237.948654,126.551704L237.265976,126.475227L236.564835,126.397858L235.842438,126.319267L235.096313,126.239143L234.323578,126.157127L233.521591,126.072906L232.687332,125.986092L231.818176,125.89637L230.911484,125.803413L229.964508,125.706894L228.97435,125.60643L226.887268,125.395271L225.861984,125.291656L224.8508,125.189537L223.854874,125.089043L222.875977,124.990349L221.9151,124.893539L220.974014,124.798805L220.053741,124.706245L219.155762,124.61599L218.281479,124.528206L217.432388,124.443039L216.609909,124.360619L215.814987,124.281029L215.049728,124.204521L214.314774,124.131111L213.611862,124.061005L212.942566,123.994347L212.307938,123.931252L211.709427,123.871849L211.148621,123.816307L210.626572,123.764717L210.144852,123.717262L209.704803,123.674049L209.307999,123.635246L208.955475,123.600967L208.649109,123.571404L208.389679,123.546593L208.179031,123.526764L208.018341,123.512016L207.957184,123.506584L207.909073,123.50248L207.874023,123.49971L207.852417,123.498306L207.734985,123.485191L207.637268,123.455849L207.557251,123.4067L207.491898,123.334076L207.439041,123.234383L207.396286,123.104034L207.360855,122.939354L207.330582,122.736794L207.31601,122.629089L207.303131,122.550255L207.289978,122.49894L207.27449,122.473785L207.255249,122.473526L207.230194,122.496803L207.197769,122.54232L207.155792,122.608704L207.112503,122.677406L207.07666,122.726089L207.04454,122.754494L207.011505,122.762238L206.973877,122.749054L206.927399,122.714622L206.867828,122.6586L206.791092,122.580666L206.73143,122.511856L206.655869,122.411949L206.565155,122.282715L206.46077,122.12603L206.343552,121.943687L206.214615,121.737518L206.075104,121.509346L205.926178,121.261002L205.768631,120.994263L205.603668,120.710991L205.432755,120.413033L205.256302,120.102142L204.892578,119.449013L204.521027,118.766151L204.30397,118.367455L204.100998,118.005905L203.910858,117.680077L203.732422,117.388565L203.564026,117.129906L203.404678,116.902702L203.252747,116.705467L203.107193,116.536835L202.9664,116.395317L202.829376,116.279518L202.694565,116.187988L202.560608,116.119301L202.426376,116.072014L202.290482,116.044716L202.151505,116.035965L202.008224,116.044319L201.886047,116.068031L201.783051,116.109291L201.699448,116.168427L201.634827,116.245659L201.588715,116.341194L201.561462,116.455391L201.552673,116.588463L201.562149,116.740677L201.569092,116.821579L201.563782,116.875488L201.539368,116.899849L201.489273,116.892136L201.406357,116.849739L201.350601,116.814758L201.284088,116.770142L201.2061,116.715591L201.115601,116.650764L201.011841,116.57534L200.894196,116.489059L200.710861,116.358017L200.533905,116.238853L200.194138,116.034653L199.866043,115.873772L199.540939,115.75351L199.210373,115.671234L198.865402,115.624214L198.497314,115.609772L198.097443,115.625198L197.951538,115.635811L197.820801,115.646217L197.598618,115.668274L197.418167,115.694954L197.266998,115.729912L197.131973,115.776672L197.00119,115.838982L196.861237,115.920326L196.70018,116.024429zM197.99173,120.324326L198.117203,120.578209L198.218582,120.80899L198.295807,121.017082L198.349213,121.202934L198.378586,121.36692L198.384155,121.509499L198.366257,121.631104L198.324524,121.732124L198.285843,121.794373L198.251495,121.835693L198.217407,121.854095L198.179047,121.847603L198.132507,121.814278L198.07373,121.752167L197.998169,121.659264L197.902115,121.533661L197.773209,121.349602L197.657425,121.154892L197.554169,120.949966L197.464111,120.735451L197.387482,120.511909L197.32431,120.279854L197.274918,120.039848L197.239624,119.792488L197.18457,119.30558L197.461182,119.569992L197.521957,119.633102L197.588638,119.711311L197.731186,119.900658L197.871323,120.113235L197.991592,120.32431L197.99173,120.324326zM197.991592,120.32431L197.99173,120.324326L197.991592,120.32431z"/>
        <path d="M183.370972,121.961014L183.225876,122.064034L183.121994,122.180527L183.056808,122.307487L183.027878,122.441902L183.032928,122.580811L183.069489,122.721169L183.135193,122.860008L183.227402,122.994278L183.343918,123.121017L183.482361,123.237221L183.640381,123.33989L183.815353,123.42601L184.005188,123.492607L184.20723,123.536652L184.419022,123.555138L184.638474,123.545097L184.987259,123.505409L184.839432,123.004395L184.755997,122.737129L184.674744,122.514877L184.592896,122.333115L184.507355,122.187294L184.414825,122.072838L184.3125,121.985214L184.19693,121.919838L184.065277,121.872177L183.935913,121.834412L183.840576,121.807884L183.76799,121.793877L183.707764,121.793877L183.64856,121.809166L183.580017,121.841209L183.491211,121.891373L183.370972,121.960991L183.370972,121.961014z"/>
    </g>
</svg>
